# Blender 5.1.2
# www.blender.org
o GerminatedWheatSeed
v -0.273840 0.010886 -0.165236
v -0.326914 0.010886 -0.234185
v -0.290462 0.134850 -0.254047
v -0.258550 0.134850 -0.212591
v -0.326914 0.010886 -0.333809
v -0.273840 0.010886 -0.402758
v -0.258550 0.134850 -0.355404
v -0.290462 0.134850 -0.313947
v -0.144078 0.010886 -0.234185
v -0.197153 0.010886 -0.165236
v -0.212442 0.134850 -0.212591
v -0.180530 0.134850 -0.254047
v -0.197153 0.010886 -0.402758
v -0.144078 0.010886 -0.333809
v -0.180530 0.134850 -0.313947
v -0.212442 0.134850 -0.355404
v -0.273840 0.102305 -0.165236
v -0.326914 0.102305 -0.234185
v -0.273840 0.102305 -0.402758
v -0.326914 0.102305 -0.333809
v -0.144078 0.102305 -0.333809
v -0.197153 0.102305 -0.402758
v -0.197153 0.102305 -0.165236
v -0.144078 0.102305 -0.234185
v 0.206211 0.007606 -0.172183
v 0.142637 0.007606 -0.227520
v 0.186300 0.136853 -0.243461
v 0.224525 0.136853 -0.210189
v 0.142637 0.007606 -0.307476
v 0.206211 0.007606 -0.362813
v 0.224525 0.136853 -0.324807
v 0.186300 0.136853 -0.291535
v 0.361641 0.007606 -0.227520
v 0.298068 0.007606 -0.172183
v 0.279754 0.136853 -0.210189
v 0.317979 0.136853 -0.243461
v 0.298068 0.007606 -0.362813
v 0.361641 0.007606 -0.307476
v 0.317979 0.136853 -0.291535
v 0.279754 0.136853 -0.324807
v 0.206211 0.102921 -0.172183
v 0.142637 0.102921 -0.227520
v 0.206211 0.102921 -0.362813
v 0.142637 0.102921 -0.307476
v 0.361641 0.102921 -0.307476
v 0.298068 0.102921 -0.362813
v 0.298068 0.102921 -0.172183
v 0.361641 0.102921 -0.227520
v -0.350005 0.009052 0.360089
v -0.404469 0.009052 0.295866
v -0.367063 0.136260 0.277366
v -0.334316 0.136260 0.315980
v -0.404469 0.009052 0.203071
v -0.350005 0.009052 0.138848
v -0.334316 0.136260 0.182957
v -0.367063 0.136260 0.221572
v -0.216847 0.009052 0.295866
v -0.271311 0.009052 0.360089
v -0.287000 0.136260 0.315980
v -0.254253 0.136260 0.277366
v -0.271311 0.009052 0.138848
v -0.216847 0.009052 0.203071
v -0.254253 0.136260 0.221572
v -0.287000 0.136260 0.182957
v -0.350005 0.102863 0.360089
v -0.404469 0.102863 0.295866
v -0.350005 0.102863 0.138848
v -0.404469 0.102863 0.203071
v -0.216847 0.102863 0.203071
v -0.271311 0.102863 0.138848
v -0.271311 0.102863 0.360089
v -0.216847 0.102863 0.295866
v -0.000723 0.013713 0.166104
v -0.051305 0.013713 0.115522
v -0.016565 0.131855 0.100951
v 0.013848 0.131855 0.131364
v -0.051305 0.013713 0.042437
v -0.000723 0.013713 -0.008145
v 0.013848 0.131855 0.026595
v -0.016565 0.131855 0.057008
v 0.122945 0.013713 0.115522
v 0.072363 0.013713 0.166104
v 0.057792 0.131855 0.131364
v 0.088205 0.131855 0.100951
v 0.072363 0.013713 -0.008145
v 0.122945 0.013713 0.042437
v 0.088205 0.131855 0.057008
v 0.057792 0.131855 0.026595
v -0.000723 0.100838 0.166104
v -0.051305 0.100838 0.115522
v -0.000723 0.100838 -0.008145
v -0.051305 0.100838 0.042437
v 0.122945 0.100838 0.042437
v 0.072363 0.100838 -0.008145
v 0.072363 0.100838 0.166104
v 0.122945 0.100838 0.115522
v 0.223586 0.008811 0.381747
v 0.151076 0.008811 0.327301
v 0.200876 0.135978 0.311616
v 0.244474 0.135978 0.344353
v 0.151076 0.008811 0.248632
v 0.223586 0.008811 0.194186
v 0.244474 0.135978 0.231580
v 0.200876 0.135978 0.264316
v 0.400867 0.008811 0.327301
v 0.328356 0.008811 0.381747
v 0.307468 0.135978 0.344353
v 0.351066 0.135978 0.311616
v 0.328356 0.008811 0.194186
v 0.400867 0.008811 0.248632
v 0.351066 0.135978 0.264316
v 0.307468 0.135978 0.231580
v 0.223586 0.102592 0.381747
v 0.151076 0.102592 0.327301
v 0.223586 0.102592 0.194186
v 0.151076 0.102592 0.248632
v 0.400867 0.102592 0.248632
v 0.328356 0.102592 0.194186
v 0.328356 0.102592 0.381747
v 0.400867 0.102592 0.327301
v 0.035820 0.067797 0.078980
v -0.235496 0.093843 -0.283997
v -0.310658 0.097292 0.249469
vn -0.4416 -0.0000 0.8972
vn -0.9467 -0.0000 0.3222
vn -0.1634 0.9861 0.0315
vn -0.1067 0.9818 0.1570
vn -0.9467 -0.0000 -0.3222
vn -0.4416 -0.0000 -0.8972
vn -0.1067 0.9818 -0.1570
vn -0.1634 0.9861 -0.0315
vn 0.9467 -0.0000 0.3222
vn 0.4416 -0.0000 0.8972
vn 0.1067 0.9818 0.1570
vn 0.1634 0.9861 0.0315
vn 0.4416 -0.0000 -0.8972
vn 0.9467 -0.0000 -0.3222
vn 0.1634 0.9861 -0.0315
vn 0.1067 0.9818 -0.1570
vn -0.3931 0.4260 0.8149
vn -0.8638 0.4036 0.3015
vn -0.3931 0.4260 -0.8149
vn -0.8638 0.4036 -0.3015
vn 0.8638 0.4036 -0.3015
vn 0.3931 0.4260 -0.8149
vn 0.3931 0.4260 0.8149
vn 0.8638 0.4036 0.3015
vn -0.3505 -0.0000 0.9366
vn -0.9101 -0.0000 0.4144
vn -0.3449 0.9236 0.1672
vn -0.1314 0.9176 0.3753
vn -0.9101 -0.0000 -0.4144
vn -0.3505 -0.0000 -0.9366
vn -0.1314 0.9176 -0.3753
vn -0.3449 0.9236 -0.1672
vn 0.9101 -0.0000 0.4144
vn 0.3505 -0.0000 0.9366
vn 0.1314 0.9176 0.3753
vn 0.3449 0.9236 0.1672
vn 0.3505 -0.0000 -0.9366
vn 0.9101 -0.0000 -0.4144
vn 0.3449 0.9236 -0.1672
vn 0.1314 0.9176 -0.3753
vn -0.3254 0.3977 0.8579
vn -0.8315 0.4102 0.3745
vn -0.3254 0.3977 -0.8579
vn -0.8315 0.4102 -0.3745
vn 0.8315 0.4102 -0.3745
vn 0.3254 0.3977 -0.8579
vn 0.3254 0.3977 0.8579
vn 0.8315 0.4102 0.3745
vn -0.4202 -0.0000 0.9074
vn -0.9388 -0.0000 0.3445
vn -0.1804 0.9823 0.0499
vn -0.0987 0.9796 0.1752
vn -0.9388 -0.0000 -0.3445
vn -0.4202 -0.0000 -0.9074
vn -0.0987 0.9796 -0.1752
vn -0.1804 0.9823 -0.0499
vn 0.9388 -0.0000 0.3445
vn 0.4202 -0.0000 0.9074
vn 0.0987 0.9796 0.1752
vn 0.1804 0.9823 0.0499
vn 0.4202 -0.0000 -0.9074
vn 0.9388 -0.0000 -0.3445
vn 0.1804 0.9823 -0.0499
vn 0.0987 0.9796 -0.1752
vn -0.3785 0.4137 0.8280
vn -0.8592 0.3990 0.3203
vn -0.3785 0.4137 -0.8280
vn -0.8592 0.3990 -0.3203
vn 0.8592 0.3990 -0.3203
vn 0.3785 0.4137 -0.8280
vn 0.3785 0.4137 0.8280
vn 0.8592 0.3990 0.3203
vn -0.3827 -0.0000 0.9239
vn -0.9239 -0.0000 0.3827
vn -0.0873 0.9956 0.0352
vn -0.0352 0.9956 0.0873
vn -0.9239 -0.0000 -0.3827
vn -0.3827 -0.0000 -0.9239
vn -0.0352 0.9956 -0.0873
vn -0.0873 0.9956 -0.0352
vn 0.9239 -0.0000 0.3827
vn 0.3827 -0.0000 0.9239
vn 0.0352 0.9956 0.0873
vn 0.0873 0.9956 0.0352
vn 0.3827 -0.0000 -0.9239
vn 0.9239 -0.0000 -0.3827
vn 0.0873 0.9956 -0.0352
vn 0.0352 0.9956 -0.0873
vn -0.3524 0.3911 0.8502
vn -0.8502 0.3911 0.3524
vn -0.3524 0.3911 -0.8502
vn -0.8502 0.3911 -0.3524
vn 0.8502 0.3911 -0.3524
vn 0.3524 0.3911 -0.8502
vn 0.3524 0.3911 0.8502
vn 0.8502 0.3911 0.3524
vn -0.3165 -0.0000 0.9486
vn -0.8946 -0.0000 0.4470
vn -0.3112 0.9333 0.1790
vn -0.1086 0.9214 0.3730
vn -0.8946 -0.0000 -0.4470
vn -0.3165 -0.0000 -0.9486
vn -0.1086 0.9214 -0.3730
vn -0.3112 0.9333 -0.1790
vn 0.8946 -0.0000 0.4470
vn 0.3165 -0.0000 0.9486
vn 0.1086 0.9214 0.3730
vn 0.3112 0.9333 0.1790
vn 0.3165 -0.0000 -0.9486
vn 0.8946 -0.0000 -0.4470
vn 0.3112 0.9333 -0.1790
vn 0.1086 0.9214 -0.3730
vn -0.2967 0.4048 0.8649
vn -0.8115 0.4290 0.3968
vn -0.2967 0.4048 -0.8649
vn -0.8115 0.4290 -0.3968
vn 0.8115 0.4290 -0.3968
vn 0.2967 0.4048 -0.8649
vn 0.2967 0.4048 0.8649
vn 0.8115 0.4290 0.3968
vn -0.0000 1.0000 -0.0000
vt 0.500000 0.000000
vt 0.625000 0.000000
vt 0.625000 0.072571
vt 0.500000 0.072571
vt 0.500000 0.322571
vt 0.375000 0.322571
vt 0.375000 0.177429
vt 0.500000 0.177429
vt 0.500000 0.572571
vt 0.375000 0.572571
vt 0.375000 0.427429
vt 0.512095 0.439524
vt 0.512095 0.810476
vt 0.375000 0.822571
vt 0.375000 0.677429
vt 0.500000 0.677429
vt 0.625000 0.177429
vt 0.649190 0.798381
vt 0.625000 0.927429
vt 0.500000 0.927429
vt 0.625000 0.677429
vt 0.625000 0.572571
vt 0.625000 0.322571
vt 0.649190 0.451619
vt 0.375000 0.927429
vt 0.375000 0.072571
vt 0.375000 0.000000
vt 0.802429 0.500000
vt 0.875000 0.572571
vt 0.875000 0.677429
vt 0.802429 0.750000
s 1
f 17/1/17 4/2/4 3/3/3 18/4/18
f 19/5/19 6/6/6 5/7/5 20/8/20
f 21/9/21 14/10/14 13/11/13 22/12/22
f 23/13/23 10/14/10 9/15/9 24/16/24
f 18/4/18 3/3/3 8/17/8 20/8/20
f 23/13/23 11/18/11 4/19/4 17/20/17
f 12/21/12 15/22/15 122/21/121
f 19/5/19 7/23/7 16/24/16 22/12/22
f 21/9/21 15/22/15 12/21/12 24/16/24
f 14/10/14 21/9/21 24/16/24 9/15/9
f 6/6/6 19/5/19 22/12/22 13/11/13
f 10/14/10 23/13/23 17/20/17 1/25/1
f 2/26/2 18/4/18 20/8/20 5/7/5
f 11/18/11 23/13/23 24/16/24 12/21/12
f 15/22/15 21/9/21 22/12/22 16/24/16
f 7/23/7 19/5/19 20/8/20 8/17/8
f 1/27/1 17/1/17 18/4/18 2/26/2
f 41/1/41 28/2/28 27/3/27 42/4/42
f 43/5/43 30/6/30 29/7/29 44/8/44
f 45/9/45 38/10/38 37/11/37 46/12/46
f 47/13/47 34/14/34 33/15/33 48/16/48
f 42/4/42 27/3/27 32/17/32 44/8/44
f 47/13/47 35/18/35 28/19/28 41/20/41
f 39/22/39 40/24/40 31/28/31 32/29/32 27/30/27 28/31/28 35/18/35 36/21/36
f 43/5/43 31/23/31 40/24/40 46/12/46
f 45/9/45 39/22/39 36/21/36 48/16/48
f 38/10/38 45/9/45 48/16/48 33/15/33
f 30/6/30 43/5/43 46/12/46 37/11/37
f 34/14/34 47/13/47 41/20/41 25/25/25
f 26/26/26 42/4/42 44/8/44 29/7/29
f 35/18/35 47/13/47 48/16/48 36/21/36
f 39/22/39 45/9/45 46/12/46 40/24/40
f 31/23/31 43/5/43 44/8/44 32/17/32
f 25/27/25 41/1/41 42/4/42 26/26/26
f 65/1/65 52/2/52 51/3/51 66/4/66
f 67/5/67 54/6/54 53/7/53 68/8/68
f 69/9/69 62/10/62 61/11/61 70/12/70
f 71/13/71 58/14/58 57/15/57 72/16/72
f 66/4/66 51/3/51 56/17/56 68/8/68
f 71/13/71 59/18/59 52/19/52 65/20/65
f 56/17/56 51/3/51 123/17/121
f 67/5/67 55/23/55 64/24/64 70/12/70
f 69/9/69 63/22/63 60/21/60 72/16/72
f 62/10/62 69/9/69 72/16/72 57/15/57
f 54/6/54 67/5/67 70/12/70 61/11/61
f 58/14/58 71/13/71 65/20/65 49/25/49
f 50/26/50 66/4/66 68/8/68 53/7/53
f 59/18/59 71/13/71 72/16/72 60/21/60
f 63/22/63 69/9/69 70/12/70 64/24/64
f 55/23/55 67/5/67 68/8/68 56/17/56
f 49/27/49 65/1/65 66/4/66 50/26/50
f 89/1/89 76/2/76 75/3/75 90/4/90
f 91/5/91 78/6/78 77/7/77 92/8/92
f 93/9/93 86/10/86 85/11/85 94/12/94
f 95/13/95 82/14/82 81/15/81 96/16/96
f 90/4/90 75/3/75 80/17/80 92/8/92
f 95/13/95 83/18/83 76/19/76 89/20/89
f 79/23/79 80/17/80 121/23/121
f 91/5/91 79/23/79 88/24/88 94/12/94
f 93/9/93 87/22/87 84/21/84 96/16/96
f 86/10/86 93/9/93 96/16/96 81/15/81
f 78/6/78 91/5/91 94/12/94 85/11/85
f 82/14/82 95/13/95 89/20/89 73/25/73
f 74/26/74 90/4/90 92/8/92 77/7/77
f 83/18/83 95/13/95 96/16/96 84/21/84
f 87/22/87 93/9/93 94/12/94 88/24/88
f 79/23/79 91/5/91 92/8/92 80/17/80
f 73/27/73 89/1/89 90/4/90 74/26/74
f 113/1/113 100/2/100 99/3/99 114/4/114
f 115/5/115 102/6/102 101/7/101 116/8/116
f 117/9/117 110/10/110 109/11/109 118/12/118
f 119/13/119 106/14/106 105/15/105 120/16/120
f 114/4/114 99/3/99 104/17/104 116/8/116
f 119/13/119 107/18/107 100/19/100 113/20/113
f 111/22/111 112/24/112 103/28/103 104/29/104 99/30/99 100/31/100 107/18/107 108/21/108
f 115/5/115 103/23/103 112/24/112 118/12/118
f 117/9/117 111/22/111 108/21/108 120/16/120
f 110/10/110 117/9/117 120/16/120 105/15/105
f 102/6/102 115/5/115 118/12/118 109/11/109
f 106/14/106 119/13/119 113/20/113 97/25/97
f 98/26/98 114/4/114 116/8/116 101/7/101
f 107/18/107 119/13/119 120/16/120 108/21/108
f 111/22/111 117/9/117 118/12/118 112/24/112
f 103/23/103 115/5/115 116/8/116 104/17/104
f 97/27/97 113/1/113 114/4/114 98/26/98
f 87/22/87 88/24/88 121/22/121
f 88/24/88 79/23/79 121/24/121
f 84/21/84 87/22/87 121/21/121
f 75/3/75 76/2/76 121/3/121
f 76/19/76 83/18/83 121/19/121
f 83/18/83 84/21/84 121/18/121
f 80/17/80 75/3/75 121/17/121
f 64/24/64 55/23/55 123/24/121
f 11/18/11 12/21/12 122/18/121
f 16/24/16 7/23/7 122/24/121
f 4/19/4 11/18/11 122/19/121
f 15/22/15 16/24/16 122/22/121
f 8/17/8 3/3/3 122/17/121
f 7/23/7 8/17/8 122/23/121
f 3/3/3 4/2/4 122/3/121
f 59/18/59 60/21/60 123/18/121
f 60/21/60 63/22/63 123/21/121
f 51/3/51 52/2/52 123/3/121
f 55/23/55 56/17/56 123/23/121
f 52/19/52 59/18/59 123/19/121
f 63/22/63 64/24/64 123/22/121
