# Blender 5.1.2
# www.blender.org
o GerminatedWheatPlant
v 0.030467 0.117622 0.053608
v 0.043101 0.117622 0.066242
v 0.017816 0.117622 0.066260
v 0.030467 0.117622 0.104214
v 0.055770 0.117622 0.078911
v 0.043119 0.117622 0.091562
v 0.005165 0.117622 0.078911
v 0.017816 0.117622 0.091562
v 0.055770 0.117622 0.078911
v 0.048383 0.229825 0.061047
v 0.106405 0.253434 0.078950
v 0.055777 0.182629 0.078931
v 0.030503 0.277023 0.078952
v 0.030467 0.117622 0.104214
v 0.048383 0.229829 0.096831
v 0.030497 0.253433 0.154858
v 0.030475 0.182629 0.104233
v 0.084188 0.300636 0.132633
v 0.008491 0.228331 0.100941
v 0.005165 0.117622 0.078911
v 0.012600 0.229824 0.096831
v -0.045411 0.253414 0.078950
v 0.005172 0.182622 0.078931
v -0.023162 0.300621 0.132633
v 0.030491 0.229827 0.096831
v 0.030467 0.117622 0.053608
v 0.012600 0.229820 0.061047
v 0.030497 0.253415 0.003042
v 0.030475 0.182623 0.053628
v -0.023162 0.300609 0.025283
v 0.061616 0.275535 0.078951
v 0.043119 0.117622 0.091562
v 0.043126 0.182629 0.091582
v 0.052487 0.228337 0.100941
v 0.048383 0.229827 0.078939
v 0.084188 0.300624 0.025283
v 0.030506 0.275534 0.110062
v 0.017823 0.182626 0.091582
v 0.017816 0.117622 0.091562
v -0.000605 0.275526 0.078951
v 0.012600 0.229822 0.078939
v 0.008490 0.228326 0.056945
v 0.017823 0.182623 0.066279
v 0.017816 0.117622 0.066260
v 0.030431 0.275527 0.047841
v 0.043108 0.182626 0.066262
v 0.043101 0.117622 0.066242
v 0.030466 0.229822 0.061047
v 0.052435 0.228332 0.056892
v 0.055770 0.194320 0.078911
v 0.030467 0.194320 0.104214
v 0.017816 0.194320 0.091562
v 0.005165 0.194320 0.078911
v 0.030467 0.194320 0.053608
v 0.043119 0.194320 0.091562
v 0.017816 0.194320 0.066260
v 0.043101 0.194320 0.066242
v -0.240220 0.211772 -0.297407
v -0.277673 0.211772 -0.297381
v -0.226395 0.251268 -0.311256
v -0.258935 0.252998 -0.305102
v -0.258933 0.122710 -0.316121
v -0.240220 0.122710 -0.297407
v -0.240209 0.198194 -0.297378
v -0.258881 0.307808 -0.278582
v -0.258987 0.306070 -0.324664
v -0.179361 0.335213 -0.358077
v -0.240194 0.211772 -0.259903
v -0.212796 0.306080 -0.278582
v -0.277673 0.122710 -0.297381
v -0.277662 0.198190 -0.297352
v -0.291486 0.251261 -0.311179
v -0.285400 0.252998 -0.278600
v -0.304958 0.306070 -0.278582
v -0.338370 0.335196 -0.358077
v -0.258933 0.211772 -0.316121
v -0.258923 0.198190 -0.316091
v -0.285400 0.252996 -0.305102
v -0.258890 0.280394 -0.391021
v -0.258933 0.122710 -0.241163
v -0.338370 0.335211 -0.199068
v -0.296412 0.211772 -0.278642
v -0.285400 0.253000 -0.252099
v -0.371326 0.280393 -0.278585
v -0.221455 0.122710 -0.278642
v -0.240194 0.122710 -0.259903
v -0.296402 0.198189 -0.278613
v -0.240184 0.198197 -0.259873
v -0.226317 0.251274 -0.246010
v -0.232397 0.253004 -0.278600
v -0.296412 0.122710 -0.278642
v -0.277673 0.122710 -0.259903
v -0.277673 0.211772 -0.259903
v -0.179361 0.335228 -0.199068
v -0.258933 0.211772 -0.241163
v -0.258923 0.198197 -0.241134
v -0.232397 0.253006 -0.252099
v -0.258890 0.280415 -0.166148
v -0.277662 0.198193 -0.259873
v -0.291486 0.251267 -0.246010
v -0.258898 0.253003 -0.252099
v -0.258877 0.306079 -0.232501
v -0.221455 0.211772 -0.278642
v -0.221444 0.198197 -0.278613
v -0.232397 0.253001 -0.305102
v -0.146454 0.280417 -0.278585
v -0.279067 0.235135 0.236141
v -0.279077 0.094453 0.236111
v -0.297791 0.094453 0.217398
v -0.297792 0.337277 0.228417
v -0.265252 0.334051 0.222262
v -0.316530 0.260442 0.236137
v -0.279077 0.260442 0.236111
v -0.297738 0.439428 0.254937
v -0.297844 0.436189 0.208855
v -0.218219 0.490504 0.175442
v -0.279052 0.260442 0.273616
v -0.251653 0.436206 0.254936
v -0.316530 0.094453 0.236137
v -0.316520 0.235127 0.236167
v -0.330344 0.334038 0.222340
v -0.324257 0.337276 0.254918
v -0.343816 0.436188 0.254936
v -0.377227 0.490472 0.175442
v -0.297791 0.260442 0.217398
v -0.297780 0.235128 0.217427
v -0.324257 0.337271 0.228417
v -0.297747 0.388335 0.142498
v -0.297791 0.094453 0.292355
v -0.377227 0.490499 0.334451
v -0.335270 0.260442 0.254877
v -0.324257 0.337280 0.281420
v -0.410184 0.388332 0.254934
v -0.260312 0.094453 0.254877
v -0.279052 0.094453 0.273616
v -0.335259 0.235127 0.254906
v -0.279041 0.235141 0.273645
v -0.265175 0.334062 0.287508
v -0.271254 0.337286 0.254918
v -0.335270 0.094453 0.254877
v -0.316530 0.094453 0.273616
v -0.316530 0.260442 0.273616
v -0.218218 0.490531 0.334451
v -0.297791 0.260442 0.292355
v -0.297780 0.235141 0.292385
v -0.271254 0.337291 0.281420
v -0.297747 0.388374 0.367370
v -0.316520 0.235134 0.273645
v -0.330344 0.334049 0.287509
v -0.297756 0.337286 0.281420
v -0.297734 0.436205 0.301018
v -0.260312 0.260442 0.254877
v -0.260302 0.235142 0.254906
v -0.271254 0.337282 0.228417
v -0.185311 0.388377 0.254934
v 0.256835 0.116154 -0.300405
v 0.269468 0.116154 -0.287771
v 0.244183 0.116154 -0.287754
v 0.256835 0.116154 -0.249800
v 0.282137 0.116154 -0.275102
v 0.269486 0.116154 -0.262451
v 0.231532 0.116154 -0.275102
v 0.244183 0.116154 -0.262451
v 0.282137 0.116154 -0.275102
v 0.274750 0.228357 -0.292966
v 0.332772 0.251966 -0.275064
v 0.282144 0.181161 -0.275083
v 0.256870 0.275555 -0.275062
v 0.256835 0.116154 -0.249800
v 0.274750 0.228361 -0.257183
v 0.256864 0.251965 -0.199156
v 0.256842 0.181161 -0.249780
v 0.310556 0.299168 -0.221380
v 0.234858 0.226863 -0.253072
v 0.231532 0.116154 -0.275102
v 0.238967 0.228356 -0.257183
v 0.180956 0.251946 -0.275064
v 0.231539 0.181155 -0.275083
v 0.203205 0.299154 -0.221380
v 0.256858 0.228359 -0.257183
v 0.256835 0.116154 -0.300405
v 0.238967 0.228352 -0.292966
v 0.256864 0.251947 -0.350972
v 0.256842 0.181155 -0.300385
v 0.203205 0.299141 -0.328730
v 0.287983 0.274067 -0.275062
v 0.269486 0.116154 -0.262451
v 0.269493 0.181161 -0.262431
v 0.278854 0.226869 -0.253072
v 0.274750 0.228359 -0.275074
v 0.310555 0.299156 -0.328730
v 0.256873 0.274066 -0.243952
v 0.244190 0.181158 -0.262431
v 0.244183 0.116154 -0.262451
v 0.225762 0.274058 -0.275062
v 0.238967 0.228354 -0.275074
v 0.234858 0.226858 -0.297069
v 0.244190 0.181155 -0.287734
v 0.244183 0.116154 -0.287754
v 0.256799 0.274059 -0.306173
v 0.269475 0.181158 -0.287751
v 0.269468 0.116154 -0.287771
v 0.256834 0.228355 -0.292966
v 0.278802 0.226864 -0.297121
v 0.282137 0.192852 -0.275102
v 0.256835 0.192852 -0.249800
v 0.244183 0.192852 -0.262451
v 0.231532 0.192852 -0.275102
v 0.256835 0.192852 -0.300405
v 0.269486 0.192852 -0.262451
v 0.244183 0.192852 -0.287754
v 0.269468 0.192852 -0.287771
v 0.273411 0.116154 0.268721
v 0.286045 0.116154 0.281355
v 0.260760 0.116154 0.281372
v 0.273411 0.116154 0.319326
v 0.298714 0.116154 0.294024
v 0.286062 0.116154 0.306675
v 0.248108 0.116154 0.294024
v 0.260760 0.116154 0.306675
v 0.298714 0.116154 0.294024
v 0.291326 0.228357 0.276160
v 0.349348 0.251966 0.294062
v 0.298721 0.181161 0.294043
v 0.273447 0.275555 0.294064
v 0.273411 0.116154 0.319326
v 0.291326 0.228361 0.311943
v 0.273440 0.251965 0.369970
v 0.273418 0.181161 0.319346
v 0.327132 0.299168 0.347746
v 0.251434 0.226863 0.316054
v 0.248108 0.116154 0.294024
v 0.255543 0.228356 0.311943
v 0.197532 0.251946 0.294062
v 0.248115 0.181155 0.294043
v 0.219782 0.299154 0.347746
v 0.273435 0.228359 0.311943
v 0.273411 0.116154 0.268721
v 0.255543 0.228352 0.276160
v 0.273440 0.251947 0.218154
v 0.273418 0.181155 0.268741
v 0.219782 0.299141 0.240396
v 0.304560 0.274067 0.294064
v 0.286062 0.116154 0.306675
v 0.286069 0.181161 0.306695
v 0.295431 0.226869 0.316054
v 0.291326 0.228359 0.294052
v 0.327132 0.299156 0.240396
v 0.273449 0.274066 0.325174
v 0.260767 0.181158 0.306695
v 0.260760 0.116154 0.306675
v 0.242339 0.274058 0.294064
v 0.255543 0.228354 0.294052
v 0.251434 0.226858 0.272057
v 0.260767 0.181155 0.281392
v 0.260760 0.116154 0.281372
v 0.273375 0.274059 0.262953
v 0.286052 0.181158 0.281375
v 0.286045 0.116154 0.281355
v 0.273410 0.228355 0.276160
v 0.295379 0.226864 0.272005
v 0.298714 0.192852 0.294024
v 0.273411 0.192852 0.319326
v 0.260760 0.192852 0.306675
v 0.248108 0.192852 0.294024
v 0.273411 0.192852 0.268721
v 0.286062 0.192852 0.306675
v 0.260760 0.192852 0.281372
v 0.286045 0.192852 0.281355
vn 0.9256 -0.3361 -0.1740
vn 0.7776 -0.3362 0.5314
vn 0.0430 0.8980 -0.4380
vn -0.7071 -0.0016 -0.7071
vn 0.4732 0.8667 -0.1580
vn 0.1580 0.8669 0.4728
vn 0.1741 -0.3361 0.9256
vn -0.5314 -0.3359 0.7777
vn 0.4379 0.8980 0.0430
vn 0.7071 -0.0008 -0.7071
vn -0.9257 -0.3357 0.1742
vn -0.7778 -0.3355 -0.5315
vn -0.0432 0.8980 0.4379
vn 0.7071 0.0016 0.7071
vn -0.4729 0.8669 0.1580
vn -0.4371 0.8984 -0.0422
vn -0.7071 0.0008 0.7071
vn -0.1599 0.8691 -0.4681
vn -0.1738 -0.3358 -0.9258
vn 0.5317 -0.3360 -0.7774
vn -0.3759 0.9238 0.0731
vn 0.0430 0.8980 0.4379
vn 0.5314 -0.3362 0.7776
vn 0.9256 -0.3362 0.1741
vn -0.4380 0.8980 0.0430
vn -0.7777 -0.3358 0.5315
vn -0.1740 -0.3360 0.9256
vn -0.0734 0.9238 -0.3758
vn 0.3757 0.9238 -0.0734
vn -0.0432 0.8980 -0.4379
vn -0.5315 -0.3356 -0.7778
vn -0.9258 -0.3356 -0.1741
vn 0.7779 -0.3358 -0.5312
vn 0.1745 -0.3355 -0.9257
vn 0.0737 0.9238 0.3758
vn 0.4387 0.8976 -0.0442
vn 0.7071 -0.0000 -0.7071
vn -0.7071 -0.0000 -0.7071
vn -0.7071 -0.0000 0.7071
vn 0.7071 -0.0000 0.7071
vn -0.0000 1.0000 -0.0000
vn 0.3576 0.9332 -0.0360
vn -0.7071 0.0010 0.7071
vn 0.0595 0.9510 0.3033
vn 0.1686 -0.4137 -0.8947
vn 0.7518 -0.4139 -0.5133
vn -0.8947 -0.4137 -0.1682
vn -0.5137 -0.4137 -0.7517
vn -0.0352 0.9335 -0.3569
vn 0.7071 0.0021 0.7071
vn 0.3032 0.9511 -0.0592
vn -0.0592 0.9510 -0.3033
vn -0.1682 -0.4142 0.8945
vn -0.7515 -0.4139 0.5137
vn -0.3569 0.9335 0.0351
vn 0.7071 -0.0010 -0.7071
vn 0.8944 -0.4144 0.1683
vn 0.5135 -0.4144 0.7514
vn 0.0350 0.9335 0.3568
vn -0.7071 -0.0021 -0.7071
vn -0.3034 0.9510 0.0590
vn 0.5138 -0.4142 -0.7513
vn -0.1679 -0.4139 -0.8947
vn -0.1317 0.9132 -0.3856
vn -0.3562 0.9338 -0.0344
vn -0.3899 0.9116 0.1302
vn -0.0352 0.9335 0.3568
vn -0.7517 -0.4137 -0.5137
vn -0.8947 -0.4138 0.1683
vn 0.3568 0.9335 0.0350
vn -0.5135 -0.4141 0.7515
vn 0.1683 -0.4143 0.8944
vn 0.1303 0.9116 0.3898
vn 0.3902 0.9115 -0.1303
vn 0.0350 0.9335 -0.3569
vn 0.7514 -0.4144 0.5135
vn 0.8945 -0.4143 -0.1682
vn 0.5801 0.8124 -0.0584
vn -0.7071 0.0005 0.7071
vn 0.0997 0.8554 0.5084
vn 0.1799 -0.2369 -0.9547
vn 0.8023 -0.2370 -0.5478
vn -0.9548 -0.2369 -0.1795
vn -0.5482 -0.2369 -0.8021
vn -0.0572 0.8131 -0.5794
vn 0.7071 0.0011 0.7071
vn 0.5083 0.8554 -0.0993
vn -0.0993 0.8554 -0.5084
vn -0.1795 -0.2372 0.9547
vn -0.8021 -0.2370 0.5482
vn -0.5794 0.8130 0.0569
vn 0.7071 -0.0005 -0.7071
vn 0.9547 -0.2373 0.1796
vn 0.5481 -0.2373 0.8020
vn 0.0569 0.8131 0.5793
vn -0.7071 -0.0011 -0.7071
vn -0.5085 0.8554 0.0989
vn 0.5484 -0.2372 -0.8019
vn -0.1792 -0.2370 -0.9548
vn -0.2066 0.7689 -0.6051
vn -0.5785 0.8138 -0.0559
vn -0.6102 0.7656 0.2038
vn -0.0572 0.8131 0.5793
vn -0.8021 -0.2369 -0.5482
vn -0.9548 -0.2369 0.1796
vn 0.5793 0.8131 0.0568
vn -0.5481 -0.2371 0.8021
vn 0.1796 -0.2373 0.9547
vn 0.2039 0.7656 0.6101
vn 0.6106 0.7653 -0.2038
vn 0.0568 0.8131 -0.5794
vn 0.8020 -0.2373 0.5481
vn 0.9547 -0.2372 -0.1795
vn -0.4729 0.8668 0.1580
vt 0.000000 0.000000
s 0
f 35/1/1 31/1/1 18/1/1 15/1/1
f 33/1/2 34/1/2 16/1/2 17/1/2
f 31/1/3 13/1/3 18/1/3
f 55/1/4 33/1/4 17/1/4 51/1/4
f 34/1/5 35/1/5 15/1/5 16/1/5
f 19/1/6 25/1/6 21/1/6 22/1/6
f 25/1/7 37/1/7 24/1/7 21/1/7
f 38/1/8 19/1/8 22/1/8 23/1/8
f 37/1/9 13/1/9 24/1/9
f 52/1/10 38/1/10 23/1/10 53/1/10
f 41/1/11 40/1/11 30/1/11 27/1/11
f 43/1/12 42/1/12 28/1/12 29/1/12
f 40/1/13 13/1/13 30/1/13
f 56/1/14 43/1/14 29/1/14 54/1/14
f 42/1/15 41/1/15 27/1/15 28/1/15
f 45/1/16 13/1/16 36/1/16
f 57/1/17 46/1/17 12/1/17 50/1/17
f 49/1/18 48/1/18 10/1/18 11/1/18
f 48/1/19 45/1/19 36/1/19 10/1/19
f 46/1/20 49/1/20 11/1/20 12/1/20
f 11/1/21 10/1/21 35/1/21 34/1/21
f 50/1/4 12/1/4 33/1/4 55/1/4
f 36/1/22 13/1/22 31/1/22
f 12/1/23 11/1/23 34/1/23 33/1/23
f 10/1/24 36/1/24 31/1/24 35/1/24
f 51/1/10 17/1/10 38/1/10 52/1/10
f 18/1/25 13/1/25 37/1/25
f 17/1/26 16/1/26 19/1/26 38/1/26
f 15/1/27 18/1/27 37/1/27 25/1/27
f 16/1/28 15/1/28 25/1/28 19/1/28
f 22/1/29 21/1/29 41/1/29 42/1/29
f 53/1/14 23/1/14 43/1/14 56/1/14
f 24/1/30 13/1/30 40/1/30
f 23/1/31 22/1/31 42/1/31 43/1/31
f 21/1/32 24/1/32 40/1/32 41/1/32
f 29/1/33 28/1/33 49/1/33 46/1/33
f 27/1/34 30/1/34 45/1/34 48/1/34
f 28/1/35 27/1/35 48/1/35 49/1/35
f 54/1/17 29/1/17 46/1/17 57/1/17
f 30/1/36 13/1/36 45/1/36
f 26/1/37 54/1/37 57/1/37 47/1/37
f 20/1/38 53/1/38 56/1/38 44/1/38
f 14/1/39 51/1/39 52/1/39 39/1/39
f 9/1/40 50/1/40 55/1/40 32/1/40
f 47/1/37 57/1/37 50/1/37 9/1/37
f 44/1/38 56/1/38 54/1/38 26/1/38
f 39/1/39 52/1/39 53/1/39 20/1/39
f 32/1/40 55/1/40 51/1/40 14/1/40
f 14/1/41 4/1/41 6/1/41 32/1/41
f 20/1/41 7/1/41 8/1/41 39/1/41
f 39/1/41 8/1/41 4/1/41 14/1/41
f 32/1/41 6/1/41 5/1/41 9/1/41
f 9/1/41 5/1/41 2/1/41 47/1/41
f 26/1/41 1/1/41 3/1/41 44/1/41
f 47/1/41 2/1/41 1/1/41 26/1/41
f 44/1/41 3/1/41 7/1/41 20/1/41
f 86/1/40 68/1/40 95/1/40 80/1/40
f 92/1/39 93/1/39 82/1/39 91/1/39
f 70/1/38 59/1/38 76/1/38 62/1/38
f 63/1/37 58/1/37 103/1/37 85/1/37
f 85/1/40 103/1/40 68/1/40 86/1/40
f 80/1/39 95/1/39 93/1/39 92/1/39
f 91/1/38 82/1/38 59/1/38 70/1/38
f 62/1/37 76/1/37 58/1/37 63/1/37
f 75/1/42 65/1/42 66/1/42
f 76/1/43 77/1/43 64/1/43 58/1/43
f 79/1/44 78/1/44 61/1/44 60/1/44
f 78/1/45 75/1/45 66/1/45 61/1/45
f 77/1/46 79/1/46 60/1/46 64/1/46
f 83/1/47 81/1/47 74/1/47 73/1/47
f 87/1/48 84/1/48 72/1/48 71/1/48
f 81/1/49 65/1/49 74/1/49
f 82/1/50 87/1/50 71/1/50 59/1/50
f 84/1/51 83/1/51 73/1/51 72/1/51
f 98/1/52 97/1/52 101/1/52 100/1/52
f 97/1/53 94/1/53 102/1/53 101/1/53
f 96/1/54 98/1/54 100/1/54 99/1/54
f 94/1/55 65/1/55 102/1/55
f 95/1/56 96/1/56 99/1/56 93/1/56
f 105/1/57 67/1/57 69/1/57 90/1/57
f 104/1/58 106/1/58 89/1/58 88/1/58
f 67/1/59 65/1/59 69/1/59
f 103/1/60 104/1/60 88/1/60 68/1/60
f 106/1/61 105/1/61 90/1/61 89/1/61
f 64/1/62 60/1/62 106/1/62 104/1/62
f 61/1/63 66/1/63 67/1/63 105/1/63
f 60/1/64 61/1/64 105/1/64 106/1/64
f 58/1/43 64/1/43 104/1/43 103/1/43
f 66/1/65 65/1/65 67/1/65
f 72/1/66 73/1/66 78/1/66 79/1/66
f 59/1/50 71/1/50 77/1/50 76/1/50
f 74/1/67 65/1/67 75/1/67
f 71/1/68 72/1/68 79/1/68 77/1/68
f 73/1/69 74/1/69 75/1/69 78/1/69
f 93/1/56 99/1/56 87/1/56 82/1/56
f 102/1/70 65/1/70 81/1/70
f 99/1/71 100/1/71 84/1/71 87/1/71
f 101/1/72 102/1/72 81/1/72 83/1/72
f 100/1/73 101/1/73 83/1/73 84/1/73
f 89/1/74 90/1/74 97/1/74 98/1/74
f 68/1/60 88/1/60 96/1/60 95/1/60
f 69/1/75 65/1/75 94/1/75
f 88/1/76 89/1/76 98/1/76 96/1/76
f 90/1/77 69/1/77 94/1/77 97/1/77
f 129/1/39 144/1/39 142/1/39 141/1/39
f 134/1/40 152/1/40 117/1/40 135/1/40
f 108/1/37 113/1/37 152/1/37 134/1/37
f 119/1/38 112/1/38 125/1/38 109/1/38
f 141/1/39 142/1/39 131/1/39 140/1/39
f 135/1/40 117/1/40 144/1/40 129/1/40
f 140/1/38 131/1/38 112/1/38 119/1/38
f 109/1/37 125/1/37 113/1/37 108/1/37
f 124/1/78 114/1/78 115/1/78
f 125/1/79 126/1/79 107/1/79 113/1/79
f 128/1/80 127/1/80 110/1/80 111/1/80
f 127/1/81 124/1/81 115/1/81 110/1/81
f 126/1/82 128/1/82 111/1/82 107/1/82
f 132/1/83 130/1/83 123/1/83 122/1/83
f 136/1/84 133/1/84 121/1/84 120/1/84
f 130/1/85 114/1/85 123/1/85
f 131/1/86 136/1/86 120/1/86 112/1/86
f 133/1/87 132/1/87 122/1/87 121/1/87
f 147/1/88 146/1/88 150/1/88 149/1/88
f 146/1/89 143/1/89 151/1/89 150/1/89
f 145/1/90 147/1/90 149/1/90 148/1/90
f 143/1/91 114/1/91 151/1/91
f 144/1/92 145/1/92 148/1/92 142/1/92
f 154/1/93 116/1/93 118/1/93 139/1/93
f 153/1/94 155/1/94 138/1/94 137/1/94
f 116/1/95 114/1/95 118/1/95
f 152/1/96 153/1/96 137/1/96 117/1/96
f 155/1/97 154/1/97 139/1/97 138/1/97
f 107/1/98 111/1/98 155/1/98 153/1/98
f 110/1/99 115/1/99 116/1/99 154/1/99
f 111/1/100 110/1/100 154/1/100 155/1/100
f 113/1/79 107/1/79 153/1/79 152/1/79
f 115/1/101 114/1/101 116/1/101
f 121/1/102 122/1/102 127/1/102 128/1/102
f 112/1/86 120/1/86 126/1/86 125/1/86
f 123/1/103 114/1/103 124/1/103
f 120/1/104 121/1/104 128/1/104 126/1/104
f 122/1/105 123/1/105 124/1/105 127/1/105
f 142/1/92 148/1/92 136/1/92 131/1/92
f 151/1/106 114/1/106 130/1/106
f 148/1/107 149/1/107 133/1/107 136/1/107
f 150/1/108 151/1/108 130/1/108 132/1/108
f 149/1/109 150/1/109 132/1/109 133/1/109
f 138/1/110 139/1/110 146/1/110 147/1/110
f 117/1/96 137/1/96 145/1/96 144/1/96
f 118/1/111 114/1/111 143/1/111
f 137/1/112 138/1/112 147/1/112 145/1/112
f 139/1/113 118/1/113 143/1/113 146/1/113
f 190/1/1 186/1/1 173/1/1 170/1/1
f 188/1/2 189/1/2 171/1/2 172/1/2
f 186/1/3 168/1/3 173/1/3
f 210/1/4 188/1/4 172/1/4 206/1/4
f 189/1/5 190/1/5 170/1/5 171/1/5
f 174/1/6 180/1/6 176/1/6 177/1/6
f 180/1/7 192/1/7 179/1/7 176/1/7
f 193/1/8 174/1/8 177/1/8 178/1/8
f 192/1/9 168/1/9 179/1/9
f 207/1/10 193/1/10 178/1/10 208/1/10
f 196/1/11 195/1/11 185/1/11 182/1/11
f 198/1/12 197/1/12 183/1/12 184/1/12
f 195/1/13 168/1/13 185/1/13
f 211/1/14 198/1/14 184/1/14 209/1/14
f 197/1/114 196/1/114 182/1/114 183/1/114
f 200/1/16 168/1/16 191/1/16
f 212/1/17 201/1/17 167/1/17 205/1/17
f 204/1/18 203/1/18 165/1/18 166/1/18
f 203/1/19 200/1/19 191/1/19 165/1/19
f 201/1/20 204/1/20 166/1/20 167/1/20
f 166/1/21 165/1/21 190/1/21 189/1/21
f 205/1/4 167/1/4 188/1/4 210/1/4
f 191/1/22 168/1/22 186/1/22
f 167/1/23 166/1/23 189/1/23 188/1/23
f 165/1/24 191/1/24 186/1/24 190/1/24
f 206/1/10 172/1/10 193/1/10 207/1/10
f 173/1/25 168/1/25 192/1/25
f 172/1/26 171/1/26 174/1/26 193/1/26
f 170/1/27 173/1/27 192/1/27 180/1/27
f 171/1/28 170/1/28 180/1/28 174/1/28
f 177/1/29 176/1/29 196/1/29 197/1/29
f 208/1/14 178/1/14 198/1/14 211/1/14
f 179/1/30 168/1/30 195/1/30
f 178/1/31 177/1/31 197/1/31 198/1/31
f 176/1/32 179/1/32 195/1/32 196/1/32
f 184/1/33 183/1/33 204/1/33 201/1/33
f 182/1/34 185/1/34 200/1/34 203/1/34
f 183/1/35 182/1/35 203/1/35 204/1/35
f 209/1/17 184/1/17 201/1/17 212/1/17
f 185/1/36 168/1/36 200/1/36
f 181/1/37 209/1/37 212/1/37 202/1/37
f 175/1/38 208/1/38 211/1/38 199/1/38
f 169/1/39 206/1/39 207/1/39 194/1/39
f 164/1/40 205/1/40 210/1/40 187/1/40
f 202/1/37 212/1/37 205/1/37 164/1/37
f 199/1/38 211/1/38 209/1/38 181/1/38
f 194/1/39 207/1/39 208/1/39 175/1/39
f 187/1/40 210/1/40 206/1/40 169/1/40
f 169/1/41 159/1/41 161/1/41 187/1/41
f 175/1/41 162/1/41 163/1/41 194/1/41
f 194/1/41 163/1/41 159/1/41 169/1/41
f 187/1/41 161/1/41 160/1/41 164/1/41
f 164/1/41 160/1/41 157/1/41 202/1/41
f 181/1/41 156/1/41 158/1/41 199/1/41
f 202/1/41 157/1/41 156/1/41 181/1/41
f 199/1/41 158/1/41 162/1/41 175/1/41
f 247/1/1 243/1/1 230/1/1 227/1/1
f 245/1/2 246/1/2 228/1/2 229/1/2
f 243/1/3 225/1/3 230/1/3
f 267/1/4 245/1/4 229/1/4 263/1/4
f 246/1/5 247/1/5 227/1/5 228/1/5
f 231/1/6 237/1/6 233/1/6 234/1/6
f 237/1/7 249/1/7 236/1/7 233/1/7
f 250/1/8 231/1/8 234/1/8 235/1/8
f 249/1/9 225/1/9 236/1/9
f 264/1/10 250/1/10 235/1/10 265/1/10
f 253/1/11 252/1/11 242/1/11 239/1/11
f 255/1/12 254/1/12 240/1/12 241/1/12
f 252/1/13 225/1/13 242/1/13
f 268/1/14 255/1/14 241/1/14 266/1/14
f 254/1/114 253/1/114 239/1/114 240/1/114
f 257/1/16 225/1/16 248/1/16
f 269/1/17 258/1/17 224/1/17 262/1/17
f 261/1/18 260/1/18 222/1/18 223/1/18
f 260/1/19 257/1/19 248/1/19 222/1/19
f 258/1/20 261/1/20 223/1/20 224/1/20
f 223/1/21 222/1/21 247/1/21 246/1/21
f 262/1/4 224/1/4 245/1/4 267/1/4
f 248/1/22 225/1/22 243/1/22
f 224/1/23 223/1/23 246/1/23 245/1/23
f 222/1/24 248/1/24 243/1/24 247/1/24
f 263/1/10 229/1/10 250/1/10 264/1/10
f 230/1/25 225/1/25 249/1/25
f 229/1/26 228/1/26 231/1/26 250/1/26
f 227/1/27 230/1/27 249/1/27 237/1/27
f 228/1/28 227/1/28 237/1/28 231/1/28
f 234/1/29 233/1/29 253/1/29 254/1/29
f 265/1/14 235/1/14 255/1/14 268/1/14
f 236/1/30 225/1/30 252/1/30
f 235/1/31 234/1/31 254/1/31 255/1/31
f 233/1/32 236/1/32 252/1/32 253/1/32
f 241/1/33 240/1/33 261/1/33 258/1/33
f 239/1/34 242/1/34 257/1/34 260/1/34
f 240/1/35 239/1/35 260/1/35 261/1/35
f 266/1/17 241/1/17 258/1/17 269/1/17
f 242/1/36 225/1/36 257/1/36
f 238/1/37 266/1/37 269/1/37 259/1/37
f 232/1/38 265/1/38 268/1/38 256/1/38
f 226/1/39 263/1/39 264/1/39 251/1/39
f 221/1/40 262/1/40 267/1/40 244/1/40
f 259/1/37 269/1/37 262/1/37 221/1/37
f 256/1/38 268/1/38 266/1/38 238/1/38
f 251/1/39 264/1/39 265/1/39 232/1/39
f 244/1/40 267/1/40 263/1/40 226/1/40
f 226/1/41 216/1/41 218/1/41 244/1/41
f 232/1/41 219/1/41 220/1/41 251/1/41
f 251/1/41 220/1/41 216/1/41 226/1/41
f 244/1/41 218/1/41 217/1/41 221/1/41
f 221/1/41 217/1/41 214/1/41 259/1/41
f 238/1/41 213/1/41 215/1/41 256/1/41
f 259/1/41 214/1/41 213/1/41 238/1/41
f 256/1/41 215/1/41 219/1/41 232/1/41
