# Blender 5.1.2
# www.blender.org
o GrownWheat
v -0.250098 0.000000 0.299997
v -0.264696 0.475451 0.264698
v -0.150040 0.575493 0.300074
v -0.250084 0.275464 0.300037
v -0.300022 0.675458 0.335433
v -0.264667 0.675451 0.264722
v -0.149982 0.975493 0.300124
v -0.340303 0.877320 0.340418
v -0.300098 0.000000 0.349997
v -0.264696 0.475468 0.335408
v -0.300040 0.575487 0.450074
v -0.300084 0.275462 0.350037
v -0.193941 0.775507 0.406156
v -0.264667 0.675468 0.335433
v -0.299982 0.975487 0.450124
v -0.343526 0.469121 0.343531
v -0.350098 0.000000 0.299997
v -0.335407 0.475448 0.335408
v -0.450040 0.575405 0.300074
v -0.350084 0.275435 0.300037
v -0.406073 0.775445 0.406156
v -0.335377 0.675448 0.335433
v -0.449982 0.975405 0.300124
v -0.300051 0.475458 0.335408
v -0.300098 0.000000 0.249997
v -0.335407 0.475430 0.264698
v -0.300040 0.575412 0.150074
v -0.300084 0.275437 0.250037
v -0.406073 0.775392 0.194024
v -0.335377 0.675430 0.264722
v -0.299982 0.975412 0.150124
v -0.238546 0.669141 0.300077
v -0.275098 0.000000 0.324997
v -0.275084 0.275463 0.325037
v -0.256585 0.469147 0.343531
v -0.264696 0.475460 0.300053
v -0.193941 0.775454 0.194024
v -0.264667 0.675460 0.300078
v -0.259689 0.877344 0.340418
v -0.299996 0.875449 0.300111
v -0.300023 0.669138 0.361554
v -0.325084 0.275448 0.325037
v -0.325098 0.000000 0.324997
v -0.340303 0.877300 0.259805
v -0.335377 0.675439 0.300078
v -0.361500 0.669105 0.300077
v -0.335407 0.475439 0.300053
v -0.343526 0.469099 0.256590
v -0.325084 0.275436 0.275037
v -0.325098 0.000000 0.274997
v -0.300169 0.669108 0.238600
v -0.259793 0.877323 0.259701
v -0.300071 0.675440 0.264722
v -0.275119 0.275450 0.275002
v -0.275133 0.000000 0.274963
v -0.300100 0.475440 0.264698
v -0.256689 0.469125 0.256487
v -0.250098 0.325000 0.299997
v -0.300098 0.325000 0.349997
v -0.325098 0.325000 0.324997
v -0.350098 0.325000 0.299997
v -0.300098 0.325000 0.249997
v -0.275098 0.325000 0.324997
v -0.325098 0.325000 0.274997
v -0.275133 0.325000 0.274963
v 0.049960 0.000000 0.299997
v 0.035363 0.475451 0.264698
v 0.150018 0.575493 0.300074
v 0.049974 0.275464 0.300037
v 0.000037 0.675458 0.335433
v 0.035392 0.675451 0.264722
v 0.150077 0.975493 0.300124
v -0.040244 0.877320 0.340418
v -0.000040 0.000000 0.349997
v 0.035363 0.475468 0.335408
v 0.000018 0.575487 0.450074
v -0.000026 0.275462 0.350037
v 0.106117 0.775507 0.406156
v 0.035392 0.675468 0.335433
v 0.000077 0.975487 0.450124
v -0.043468 0.469121 0.343531
v -0.050040 0.000000 0.299997
v -0.035348 0.475448 0.335408
v -0.149982 0.575405 0.300074
v -0.050026 0.275435 0.300037
v -0.106015 0.775445 0.406156
v -0.035319 0.675448 0.335433
v -0.149923 0.975405 0.300124
v 0.000007 0.475458 0.335408
v -0.000040 0.000000 0.249997
v -0.035348 0.475430 0.264698
v 0.000018 0.575412 0.150074
v -0.000026 0.275437 0.250037
v -0.106015 0.775392 0.194024
v -0.035319 0.675430 0.264722
v 0.000077 0.975412 0.150124
v 0.061512 0.669141 0.300077
v 0.024960 0.000000 0.324997
v 0.024974 0.275463 0.325037
v 0.043473 0.469147 0.343531
v 0.035363 0.475460 0.300053
v 0.106117 0.775454 0.194024
v 0.035392 0.675460 0.300078
v 0.040369 0.877344 0.340418
v 0.000062 0.875449 0.300111
v 0.000036 0.669138 0.361554
v -0.025026 0.275448 0.325037
v -0.025040 0.000000 0.324997
v -0.040244 0.877300 0.259805
v -0.035319 0.675439 0.300078
v -0.061441 0.669105 0.300077
v -0.035348 0.475439 0.300053
v -0.043468 0.469099 0.256590
v -0.025026 0.275436 0.275037
v -0.025040 0.000000 0.274997
v -0.000111 0.669108 0.238600
v 0.040266 0.877323 0.259701
v -0.000012 0.675440 0.264722
v 0.024940 0.275450 0.275002
v 0.024926 0.000000 0.274963
v -0.000041 0.475440 0.264698
v 0.043370 0.469125 0.256487
v 0.049960 0.325000 0.299997
v -0.000040 0.325000 0.349997
v -0.025040 0.325000 0.324997
v -0.050040 0.325000 0.299997
v -0.000040 0.325000 0.249997
v 0.024960 0.325000 0.324997
v -0.025040 0.325000 0.274997
v 0.024926 0.325000 0.274963
v 0.350019 0.000000 0.299997
v 0.335421 0.475451 0.264698
v 0.450077 0.575493 0.300074
v 0.350033 0.275464 0.300037
v 0.300095 0.675458 0.335433
v 0.335450 0.675451 0.264722
v 0.450136 0.975493 0.300124
v 0.259815 0.877320 0.340418
v 0.300019 0.000000 0.349997
v 0.335421 0.475468 0.335408
v 0.300077 0.575487 0.450074
v 0.300033 0.275462 0.350037
v 0.406176 0.775507 0.406156
v 0.335450 0.675468 0.335433
v 0.300135 0.975487 0.450124
v 0.256591 0.469121 0.343531
v 0.250019 0.000000 0.299997
v 0.264711 0.475448 0.335408
v 0.150077 0.575405 0.300074
v 0.250033 0.275435 0.300037
v 0.194044 0.775445 0.406156
v 0.264740 0.675448 0.335433
v 0.150135 0.975405 0.300124
v 0.300066 0.475458 0.335408
v 0.300019 0.000000 0.249997
v 0.264710 0.475430 0.264698
v 0.300077 0.575412 0.150074
v 0.300033 0.275437 0.250037
v 0.194044 0.775392 0.194024
v 0.264740 0.675430 0.264722
v 0.300135 0.975412 0.150124
v 0.361571 0.669141 0.300077
v 0.325019 0.000000 0.324997
v 0.325033 0.275463 0.325037
v 0.343532 0.469147 0.343531
v 0.335421 0.475460 0.300053
v 0.406176 0.775454 0.194024
v 0.335450 0.675460 0.300078
v 0.340428 0.877344 0.340418
v 0.300121 0.875449 0.300111
v 0.300094 0.669138 0.361554
v 0.275033 0.275448 0.325037
v 0.275019 0.000000 0.324997
v 0.259815 0.877300 0.259805
v 0.264740 0.675439 0.300078
v 0.238618 0.669105 0.300077
v 0.264711 0.475439 0.300053
v 0.256591 0.469099 0.256590
v 0.275033 0.275436 0.275037
v 0.275019 0.000000 0.274997
v 0.299948 0.669108 0.238600
v 0.340324 0.877323 0.259701
v 0.300046 0.675440 0.264722
v 0.324998 0.275450 0.275002
v 0.324984 0.000000 0.274963
v 0.300017 0.475440 0.264698
v 0.343428 0.469125 0.256487
v 0.350019 0.325000 0.299997
v 0.300019 0.325000 0.349997
v 0.275019 0.325000 0.324997
v 0.250019 0.325000 0.299997
v 0.300019 0.325000 0.249997
v 0.325019 0.325000 0.324997
v 0.275019 0.325000 0.274997
v 0.324984 0.325000 0.274963
v -0.250098 0.000000 -0.000053
v -0.264696 0.475451 -0.035352
v -0.150040 0.575493 0.000024
v -0.250084 0.275464 -0.000013
v -0.300022 0.675458 0.035383
v -0.264667 0.675451 -0.035327
v -0.149982 0.975493 0.000074
v -0.340303 0.877320 0.040368
v -0.300098 0.000000 0.049948
v -0.264696 0.475468 0.035358
v -0.300040 0.575487 0.150024
v -0.300084 0.275462 0.049987
v -0.193941 0.775507 0.106106
v -0.264667 0.675468 0.035383
v -0.299982 0.975487 0.150074
v -0.343526 0.469121 0.043481
v -0.350098 0.000000 -0.000053
v -0.335407 0.475448 0.035358
v -0.450040 0.575405 0.000024
v -0.350084 0.275435 -0.000013
v -0.406073 0.775445 0.106106
v -0.335377 0.675448 0.035383
v -0.449982 0.975405 0.000074
v -0.300051 0.475458 0.035358
v -0.300098 0.000000 -0.050053
v -0.335407 0.475430 -0.035352
v -0.300040 0.575412 -0.149976
v -0.300084 0.275437 -0.050013
v -0.406073 0.775392 -0.106026
v -0.335377 0.675430 -0.035327
v -0.299982 0.975412 -0.149926
v -0.238546 0.669141 0.000027
v -0.275098 0.000000 0.024947
v -0.275084 0.275463 0.024987
v -0.256585 0.469147 0.043481
v -0.264696 0.475460 0.000003
v -0.193941 0.775454 -0.106026
v -0.264667 0.675460 0.000028
v -0.259689 0.877344 0.040368
v -0.299996 0.875449 0.000061
v -0.300023 0.669138 0.061504
v -0.325084 0.275448 0.024987
v -0.325098 0.000000 0.024947
v -0.340303 0.877300 -0.040245
v -0.335377 0.675439 0.000028
v -0.361500 0.669105 0.000027
v -0.335407 0.475439 0.000003
v -0.343526 0.469099 -0.043460
v -0.325084 0.275436 -0.025013
v -0.325098 0.000000 -0.025053
v -0.300169 0.669108 -0.061449
v -0.259793 0.877323 -0.040348
v -0.300071 0.675440 -0.035327
v -0.275119 0.275450 -0.025048
v -0.275133 0.000000 -0.025087
v -0.300100 0.475440 -0.035352
v -0.256689 0.469125 -0.043563
v -0.250098 0.325000 -0.000053
v -0.300098 0.325000 0.049948
v -0.325098 0.325000 0.024947
v -0.350098 0.325000 -0.000053
v -0.300098 0.325000 -0.050053
v -0.275098 0.325000 0.024947
v -0.325098 0.325000 -0.025053
v -0.275133 0.325000 -0.025087
v 0.049960 0.000000 -0.000053
v 0.035363 0.475451 -0.035352
v 0.150018 0.575493 0.000024
v 0.049974 0.275464 -0.000013
v 0.000037 0.675458 0.035383
v 0.035392 0.675451 -0.035327
v 0.150077 0.975493 0.000074
v -0.040244 0.877320 0.040368
v -0.000040 0.000000 0.049948
v 0.035363 0.475468 0.035358
v 0.000018 0.575487 0.150024
v -0.000026 0.275462 0.049987
v 0.106117 0.775507 0.106106
v 0.035392 0.675468 0.035383
v 0.000077 0.975487 0.150074
v -0.043468 0.469121 0.043481
v -0.050040 0.000000 -0.000053
v -0.035348 0.475448 0.035358
v -0.149982 0.575405 0.000024
v -0.050026 0.275435 -0.000013
v -0.106015 0.775445 0.106106
v -0.035319 0.675448 0.035383
v -0.149923 0.975405 0.000074
v 0.000007 0.475458 0.035358
v -0.000040 0.000000 -0.050053
v -0.035348 0.475430 -0.035352
v 0.000018 0.575412 -0.149976
v -0.000026 0.275437 -0.050013
v -0.106015 0.775392 -0.106026
v -0.035319 0.675430 -0.035327
v 0.000077 0.975412 -0.149926
v 0.061512 0.669141 0.000027
v 0.024960 0.000000 0.024947
v 0.024974 0.275463 0.024987
v 0.043473 0.469147 0.043481
v 0.035363 0.475460 0.000003
v 0.106117 0.775454 -0.106026
v 0.035392 0.675460 0.000028
v 0.040369 0.877344 0.040368
v 0.000062 0.875449 0.000061
v 0.000036 0.669138 0.061504
v -0.025026 0.275448 0.024987
v -0.025040 0.000000 0.024947
v -0.040244 0.877300 -0.040245
v -0.035319 0.675439 0.000028
v -0.061441 0.669105 0.000027
v -0.035348 0.475439 0.000003
v -0.043468 0.469099 -0.043460
v -0.025026 0.275436 -0.025013
v -0.025040 0.000000 -0.025053
v -0.000111 0.669108 -0.061449
v 0.040266 0.877323 -0.040348
v -0.000012 0.675440 -0.035327
v 0.024940 0.275450 -0.025048
v 0.024926 0.000000 -0.025087
v -0.000041 0.475440 -0.035352
v 0.043370 0.469125 -0.043563
v 0.049960 0.325000 -0.000053
v -0.000040 0.325000 0.049948
v -0.025040 0.325000 0.024947
v -0.050040 0.325000 -0.000053
v -0.000040 0.325000 -0.050053
v 0.024960 0.325000 0.024947
v -0.025040 0.325000 -0.025053
v 0.024926 0.325000 -0.025087
v 0.350019 0.000000 -0.000053
v 0.335421 0.475451 -0.035352
v 0.450077 0.575493 0.000024
v 0.350033 0.275464 -0.000013
v 0.300095 0.675458 0.035383
v 0.335450 0.675451 -0.035327
v 0.450136 0.975493 0.000074
v 0.259815 0.877320 0.040368
v 0.300019 0.000000 0.049948
v 0.335421 0.475468 0.035358
v 0.300077 0.575487 0.150024
v 0.300033 0.275462 0.049987
v 0.406176 0.775507 0.106106
v 0.335450 0.675468 0.035383
v 0.300135 0.975487 0.150074
v 0.256591 0.469121 0.043481
v 0.250019 0.000000 -0.000053
v 0.264711 0.475448 0.035358
v 0.150077 0.575405 0.000024
v 0.250033 0.275435 -0.000013
v 0.194044 0.775445 0.106106
v 0.264740 0.675448 0.035383
v 0.150135 0.975405 0.000074
v 0.300066 0.475458 0.035358
v 0.300019 0.000000 -0.050053
v 0.264710 0.475430 -0.035352
v 0.300077 0.575412 -0.149976
v 0.300033 0.275437 -0.050013
v 0.194044 0.775392 -0.106026
v 0.264740 0.675430 -0.035327
v 0.300135 0.975412 -0.149926
v 0.361571 0.669141 0.000027
v 0.325019 0.000000 0.024947
v 0.325033 0.275463 0.024987
v 0.343532 0.469147 0.043481
v 0.335421 0.475460 0.000003
v 0.406176 0.775454 -0.106026
v 0.335450 0.675460 0.000028
v 0.340428 0.877344 0.040368
v 0.300121 0.875449 0.000061
v 0.300094 0.669138 0.061504
v 0.275033 0.275448 0.024987
v 0.275019 0.000000 0.024947
v 0.259815 0.877300 -0.040245
v 0.264740 0.675439 0.000028
v 0.238618 0.669105 0.000027
v 0.264711 0.475439 0.000003
v 0.256591 0.469099 -0.043460
v 0.275033 0.275436 -0.025013
v 0.275019 0.000000 -0.025053
v 0.299948 0.669108 -0.061449
v 0.340324 0.877323 -0.040348
v 0.300046 0.675440 -0.035327
v 0.324998 0.275450 -0.025048
v 0.324984 0.000000 -0.025087
v 0.300017 0.475440 -0.035352
v 0.343428 0.469125 -0.043563
v 0.350019 0.325000 -0.000053
v 0.300019 0.325000 0.049948
v 0.275019 0.325000 0.024947
v 0.250019 0.325000 -0.000053
v 0.300019 0.325000 -0.050053
v 0.325019 0.325000 0.024947
v 0.275019 0.325000 -0.025053
v 0.324984 0.325000 -0.025087
v -0.250098 0.000000 -0.300102
v -0.264696 0.475451 -0.335402
v -0.150040 0.575493 -0.300026
v -0.250084 0.275464 -0.300063
v -0.300022 0.675458 -0.264667
v -0.264667 0.675451 -0.335377
v -0.149982 0.975493 -0.299976
v -0.340303 0.877320 -0.259681
v -0.300098 0.000000 -0.250102
v -0.264696 0.475468 -0.264691
v -0.300040 0.575487 -0.150026
v -0.300084 0.275462 -0.250063
v -0.193941 0.775507 -0.193943
v -0.264667 0.675468 -0.264667
v -0.299982 0.975487 -0.149976
v -0.343526 0.469121 -0.256568
v -0.350098 0.000000 -0.300102
v -0.335407 0.475448 -0.264691
v -0.450040 0.575405 -0.300026
v -0.350084 0.275435 -0.300063
v -0.406073 0.775445 -0.193943
v -0.335377 0.675448 -0.264667
v -0.449982 0.975405 -0.299976
v -0.300051 0.475458 -0.264691
v -0.300098 0.000000 -0.350102
v -0.335407 0.475430 -0.335402
v -0.300040 0.575412 -0.450026
v -0.300084 0.275437 -0.350063
v -0.406073 0.775392 -0.406075
v -0.335377 0.675430 -0.335377
v -0.299982 0.975412 -0.449976
v -0.238546 0.669141 -0.300023
v -0.275098 0.000000 -0.275102
v -0.275084 0.275463 -0.275063
v -0.256585 0.469147 -0.256568
v -0.264696 0.475460 -0.300047
v -0.193941 0.775454 -0.406075
v -0.264667 0.675460 -0.300022
v -0.259689 0.877344 -0.259681
v -0.299996 0.875449 -0.299988
v -0.300023 0.669138 -0.238546
v -0.325084 0.275448 -0.275063
v -0.325098 0.000000 -0.275102
v -0.340303 0.877300 -0.340295
v -0.335377 0.675439 -0.300022
v -0.361500 0.669105 -0.300023
v -0.335407 0.475439 -0.300047
v -0.343526 0.469099 -0.343509
v -0.325084 0.275436 -0.325063
v -0.325098 0.000000 -0.325102
v -0.300169 0.669108 -0.361499
v -0.259793 0.877323 -0.340398
v -0.300071 0.675440 -0.335377
v -0.275119 0.275450 -0.325098
v -0.275133 0.000000 -0.325137
v -0.300100 0.475440 -0.335402
v -0.256689 0.469125 -0.343613
v -0.250098 0.325000 -0.300102
v -0.300098 0.325000 -0.250102
v -0.325098 0.325000 -0.275102
v -0.350098 0.325000 -0.300102
v -0.300098 0.325000 -0.350102
v -0.275098 0.325000 -0.275102
v -0.325098 0.325000 -0.325102
v -0.275133 0.325000 -0.325137
v 0.049960 0.000000 -0.300102
v 0.035363 0.475451 -0.335402
v 0.150018 0.575493 -0.300026
v 0.049974 0.275464 -0.300063
v 0.000037 0.675458 -0.264667
v 0.035392 0.675451 -0.335377
v 0.150077 0.975493 -0.299976
v -0.040244 0.877320 -0.259681
v -0.000040 0.000000 -0.250102
v 0.035363 0.475468 -0.264691
v 0.000018 0.575487 -0.150026
v -0.000026 0.275462 -0.250063
v 0.106117 0.775507 -0.193943
v 0.035392 0.675468 -0.264667
v 0.000077 0.975487 -0.149976
v -0.043468 0.469121 -0.256568
v -0.050040 0.000000 -0.300102
v -0.035348 0.475448 -0.264691
v -0.149982 0.575405 -0.300026
v -0.050026 0.275435 -0.300063
v -0.106015 0.775445 -0.193943
v -0.035319 0.675448 -0.264667
v -0.149923 0.975405 -0.299976
v 0.000007 0.475458 -0.264691
v -0.000040 0.000000 -0.350102
v -0.035348 0.475430 -0.335402
v 0.000018 0.575412 -0.450026
v -0.000026 0.275437 -0.350063
v -0.106015 0.775392 -0.406075
v -0.035319 0.675430 -0.335377
v 0.000077 0.975412 -0.449976
v 0.061512 0.669141 -0.300023
v 0.024960 0.000000 -0.275102
v 0.024974 0.275463 -0.275063
v 0.043473 0.469147 -0.256568
v 0.035363 0.475460 -0.300047
v 0.106117 0.775454 -0.406075
v 0.035392 0.675460 -0.300022
v 0.040369 0.877344 -0.259681
v 0.000062 0.875449 -0.299988
v 0.000036 0.669138 -0.238546
v -0.025026 0.275448 -0.275063
v -0.025040 0.000000 -0.275102
v -0.040244 0.877300 -0.340295
v -0.035319 0.675439 -0.300022
v -0.061441 0.669105 -0.300023
v -0.035348 0.475439 -0.300047
v -0.043468 0.469099 -0.343509
v -0.025026 0.275436 -0.325063
v -0.025040 0.000000 -0.325102
v -0.000111 0.669108 -0.361499
v 0.040266 0.877323 -0.340398
v -0.000012 0.675440 -0.335377
v 0.024940 0.275450 -0.325098
v 0.024926 0.000000 -0.325137
v -0.000041 0.475440 -0.335402
v 0.043370 0.469125 -0.343613
v 0.049960 0.325000 -0.300102
v -0.000040 0.325000 -0.250102
v -0.025040 0.325000 -0.275102
v -0.050040 0.325000 -0.300102
v -0.000040 0.325000 -0.350102
v 0.024960 0.325000 -0.275102
v -0.025040 0.325000 -0.325102
v 0.024926 0.325000 -0.325137
v 0.350019 0.000000 -0.300102
v 0.335421 0.475451 -0.335402
v 0.450077 0.575493 -0.300026
v 0.350033 0.275464 -0.300063
v 0.300095 0.675458 -0.264667
v 0.335450 0.675451 -0.335377
v 0.450136 0.975493 -0.299976
v 0.259815 0.877320 -0.259681
v 0.300019 0.000000 -0.250102
v 0.335421 0.475468 -0.264691
v 0.300077 0.575487 -0.150026
v 0.300033 0.275462 -0.250063
v 0.406176 0.775507 -0.193943
v 0.335450 0.675468 -0.264667
v 0.300135 0.975487 -0.149976
v 0.256591 0.469121 -0.256568
v 0.250019 0.000000 -0.300102
v 0.264711 0.475448 -0.264691
v 0.150077 0.575405 -0.300026
v 0.250033 0.275435 -0.300063
v 0.194044 0.775445 -0.193943
v 0.264740 0.675448 -0.264667
v 0.150135 0.975405 -0.299976
v 0.300066 0.475458 -0.264691
v 0.300019 0.000000 -0.350102
v 0.264710 0.475430 -0.335402
v 0.300077 0.575412 -0.450026
v 0.300033 0.275437 -0.350063
v 0.194044 0.775392 -0.406075
v 0.264740 0.675430 -0.335377
v 0.300135 0.975412 -0.449976
v 0.361571 0.669141 -0.300023
v 0.325019 0.000000 -0.275102
v 0.325033 0.275463 -0.275063
v 0.343532 0.469147 -0.256568
v 0.335421 0.475460 -0.300047
v 0.406176 0.775454 -0.406075
v 0.335450 0.675460 -0.300022
v 0.340428 0.877344 -0.259681
v 0.300121 0.875449 -0.299988
v 0.300094 0.669138 -0.238546
v 0.275033 0.275448 -0.275063
v 0.275019 0.000000 -0.275102
v 0.259815 0.877300 -0.340295
v 0.264740 0.675439 -0.300022
v 0.238618 0.669105 -0.300023
v 0.264711 0.475439 -0.300047
v 0.256591 0.469099 -0.343509
v 0.275033 0.275436 -0.325063
v 0.275019 0.000000 -0.325102
v 0.299948 0.669108 -0.361499
v 0.340324 0.877323 -0.340398
v 0.300046 0.675440 -0.335377
v 0.324998 0.275450 -0.325098
v 0.324984 0.000000 -0.325137
v 0.300017 0.475440 -0.335402
v 0.343428 0.469125 -0.343613
v 0.350019 0.325000 -0.300102
v 0.300019 0.325000 -0.250102
v 0.275019 0.325000 -0.275102
v 0.250019 0.325000 -0.300102
v 0.300019 0.325000 -0.350102
v 0.325019 0.325000 -0.275102
v 0.275019 0.325000 -0.325102
v 0.324984 0.325000 -0.325137
vn 0.9575 -0.0307 0.2867
vn 0.9694 -0.1641 -0.1823
vn 0.8144 -0.1642 0.5566
vn 0.4584 0.7394 -0.4931
vn -0.4255 0.7826 -0.4544
vn -0.7071 -0.0008 -0.7071
vn 0.7370 0.6295 -0.2461
vn 0.2462 0.6299 0.7367
vn -0.2867 -0.0306 0.9575
vn 0.1824 -0.1642 0.9694
vn -0.5565 -0.1641 0.8145
vn 0.4929 0.7395 0.4585
vn 0.4541 0.7827 -0.4256
vn 0.7071 -0.0004 -0.7071
vn -0.9575 -0.0303 -0.2867
vn -0.9695 -0.1639 0.1824
vn -0.8145 -0.1639 -0.5566
vn -0.4588 0.7394 0.4927
vn 0.4253 0.7828 0.4543
vn 0.7071 0.0008 0.7071
vn -0.7367 0.6298 0.2461
vn -0.4936 0.7401 -0.4567
vn -0.4535 0.7826 0.4263
vn -0.7071 0.0004 0.7071
vn -0.2500 0.6337 -0.7320
vn 0.2873 -0.0307 -0.9574
vn -0.1820 -0.1640 -0.9695
vn 0.5569 -0.1641 -0.8142
vn -0.6521 0.7474 0.1269
vn -0.4256 0.7827 0.4541
vn 0.5566 -0.1642 0.8144
vn 0.9694 -0.1642 0.1824
vn 0.6973 -0.2666 0.6653
vn -0.4544 0.7826 -0.4255
vn -0.8144 -0.1640 0.5566
vn -0.1823 -0.1641 0.9695
vn -0.6653 -0.2665 0.6974
vn -0.1274 0.7474 -0.6520
vn 0.6519 0.7476 -0.1274
vn 0.4252 0.7827 -0.4545
vn -0.5566 -0.1639 -0.8145
vn -0.9695 -0.1639 -0.1823
vn -0.6974 -0.2663 -0.6654
vn 0.8147 -0.1640 -0.5563
vn 0.1827 -0.1639 -0.9694
vn 0.6656 -0.2665 -0.6971
vn 0.1279 0.7474 0.6519
vn 0.4553 0.7828 0.4241
vn 0.4604 0.7387 0.4923
vn -0.4931 0.7394 0.4584
vn -0.4587 0.7393 -0.4930
vn 0.4927 0.7394 -0.4588
vn 0.7071 -0.0000 -0.7071
vn -0.7071 -0.0000 -0.7071
vn -0.7071 -0.0000 0.7071
vn 0.7071 -0.0000 0.7071
vn 0.2462 0.6299 0.7366
vn 0.7370 0.6295 -0.2460
vn -0.2500 0.6338 -0.7320
vt 0.000000 0.000000
s 0
f 38/1/1 39/1/1 15/1/1 14/1/1
f 36/1/2 32/1/2 13/1/2 10/1/2
f 34/1/3 35/1/3 11/1/3 12/1/3
f 40/1/4 15/1/4 39/1/4
f 32/1/5 38/1/5 14/1/5 13/1/5
f 63/1/6 34/1/6 12/1/6 59/1/6
f 35/1/7 36/1/7 10/1/7 11/1/7
f 16/1/8 24/1/8 18/1/8 19/1/8
f 5/1/9 8/1/9 23/1/9 22/1/9
f 24/1/10 41/1/10 21/1/10 18/1/10
f 42/1/11 16/1/11 19/1/11 20/1/11
f 40/1/12 23/1/12 8/1/12
f 41/1/13 5/1/13 22/1/13 21/1/13
f 60/1/14 42/1/14 20/1/14 61/1/14
f 45/1/15 44/1/15 31/1/15 30/1/15
f 47/1/16 46/1/16 29/1/16 26/1/16
f 49/1/17 48/1/17 27/1/17 28/1/17
f 40/1/18 31/1/18 44/1/18
f 46/1/19 45/1/19 30/1/19 29/1/19
f 64/1/20 49/1/20 28/1/20 62/1/20
f 48/1/21 47/1/21 26/1/21 27/1/21
f 40/1/22 7/1/22 52/1/22
f 51/1/23 53/1/23 6/1/23 37/1/23
f 65/1/24 54/1/24 4/1/24 58/1/24
f 57/1/25 56/1/25 2/1/25 3/1/25
f 53/1/26 52/1/26 7/1/26 6/1/26
f 56/1/27 51/1/27 37/1/27 2/1/27
f 54/1/28 57/1/28 3/1/28 4/1/28
f 3/1/29 2/1/29 36/1/29 35/1/29
f 58/1/6 4/1/6 34/1/6 63/1/6
f 37/1/30 6/1/30 38/1/30 32/1/30
f 4/1/31 3/1/31 35/1/31 34/1/31
f 2/1/32 37/1/32 32/1/32 36/1/32
f 6/1/33 7/1/33 39/1/33 38/1/33
f 59/1/14 12/1/14 42/1/14 60/1/14
f 13/1/34 14/1/34 5/1/34 41/1/34
f 12/1/35 11/1/35 16/1/35 42/1/35
f 10/1/36 13/1/36 41/1/36 24/1/36
f 14/1/37 15/1/37 8/1/37 5/1/37
f 11/1/38 10/1/38 24/1/38 16/1/38
f 19/1/39 18/1/39 47/1/39 48/1/39
f 61/1/20 20/1/20 49/1/20 64/1/20
f 21/1/40 22/1/40 45/1/40 46/1/40
f 20/1/41 19/1/41 48/1/41 49/1/41
f 18/1/42 21/1/42 46/1/42 47/1/42
f 22/1/43 23/1/43 44/1/43 45/1/43
f 28/1/44 27/1/44 57/1/44 54/1/44
f 26/1/45 29/1/45 51/1/45 56/1/45
f 30/1/46 31/1/46 52/1/46 53/1/46
f 27/1/47 26/1/47 56/1/47 57/1/47
f 62/1/24 28/1/24 54/1/24 65/1/24
f 29/1/48 30/1/48 53/1/48 51/1/48
f 31/1/49 40/1/49 52/1/49
f 7/1/50 40/1/50 39/1/50
f 15/1/51 40/1/51 8/1/51
f 23/1/52 40/1/52 44/1/52
f 25/1/53 62/1/53 65/1/53 55/1/53
f 17/1/54 61/1/54 64/1/54 50/1/54
f 9/1/55 59/1/55 60/1/55 43/1/55
f 1/1/56 58/1/56 63/1/56 33/1/56
f 55/1/53 65/1/53 58/1/53 1/1/53
f 50/1/54 64/1/54 62/1/54 25/1/54
f 43/1/55 60/1/55 61/1/55 17/1/55
f 33/1/56 63/1/56 59/1/56 9/1/56
f 103/1/1 104/1/1 80/1/1 79/1/1
f 101/1/2 97/1/2 78/1/2 75/1/2
f 99/1/3 100/1/3 76/1/3 77/1/3
f 105/1/4 80/1/4 104/1/4
f 97/1/5 103/1/5 79/1/5 78/1/5
f 128/1/6 99/1/6 77/1/6 124/1/6
f 100/1/7 101/1/7 75/1/7 76/1/7
f 81/1/57 89/1/57 83/1/57 84/1/57
f 70/1/9 73/1/9 88/1/9 87/1/9
f 89/1/10 106/1/10 86/1/10 83/1/10
f 107/1/11 81/1/11 84/1/11 85/1/11
f 105/1/12 88/1/12 73/1/12
f 106/1/13 70/1/13 87/1/13 86/1/13
f 125/1/14 107/1/14 85/1/14 126/1/14
f 110/1/15 109/1/15 96/1/15 95/1/15
f 112/1/16 111/1/16 94/1/16 91/1/16
f 114/1/17 113/1/17 92/1/17 93/1/17
f 105/1/18 96/1/18 109/1/18
f 111/1/19 110/1/19 95/1/19 94/1/19
f 129/1/20 114/1/20 93/1/20 127/1/20
f 113/1/21 112/1/21 91/1/21 92/1/21
f 105/1/22 72/1/22 117/1/22
f 116/1/23 118/1/23 71/1/23 102/1/23
f 130/1/24 119/1/24 69/1/24 123/1/24
f 122/1/25 121/1/25 67/1/25 68/1/25
f 118/1/26 117/1/26 72/1/26 71/1/26
f 121/1/27 116/1/27 102/1/27 67/1/27
f 119/1/28 122/1/28 68/1/28 69/1/28
f 68/1/29 67/1/29 101/1/29 100/1/29
f 123/1/6 69/1/6 99/1/6 128/1/6
f 102/1/30 71/1/30 103/1/30 97/1/30
f 69/1/31 68/1/31 100/1/31 99/1/31
f 67/1/32 102/1/32 97/1/32 101/1/32
f 71/1/33 72/1/33 104/1/33 103/1/33
f 124/1/14 77/1/14 107/1/14 125/1/14
f 78/1/34 79/1/34 70/1/34 106/1/34
f 77/1/35 76/1/35 81/1/35 107/1/35
f 75/1/36 78/1/36 106/1/36 89/1/36
f 79/1/37 80/1/37 73/1/37 70/1/37
f 76/1/38 75/1/38 89/1/38 81/1/38
f 84/1/39 83/1/39 112/1/39 113/1/39
f 126/1/20 85/1/20 114/1/20 129/1/20
f 86/1/40 87/1/40 110/1/40 111/1/40
f 85/1/41 84/1/41 113/1/41 114/1/41
f 83/1/42 86/1/42 111/1/42 112/1/42
f 87/1/43 88/1/43 109/1/43 110/1/43
f 93/1/44 92/1/44 122/1/44 119/1/44
f 91/1/45 94/1/45 116/1/45 121/1/45
f 95/1/46 96/1/46 117/1/46 118/1/46
f 92/1/47 91/1/47 121/1/47 122/1/47
f 127/1/24 93/1/24 119/1/24 130/1/24
f 94/1/48 95/1/48 118/1/48 116/1/48
f 96/1/49 105/1/49 117/1/49
f 72/1/50 105/1/50 104/1/50
f 80/1/51 105/1/51 73/1/51
f 88/1/52 105/1/52 109/1/52
f 90/1/53 127/1/53 130/1/53 120/1/53
f 82/1/54 126/1/54 129/1/54 115/1/54
f 74/1/55 124/1/55 125/1/55 108/1/55
f 66/1/56 123/1/56 128/1/56 98/1/56
f 120/1/53 130/1/53 123/1/53 66/1/53
f 115/1/54 129/1/54 127/1/54 90/1/54
f 108/1/55 125/1/55 126/1/55 82/1/55
f 98/1/56 128/1/56 124/1/56 74/1/56
f 168/1/1 169/1/1 145/1/1 144/1/1
f 166/1/2 162/1/2 143/1/2 140/1/2
f 164/1/3 165/1/3 141/1/3 142/1/3
f 170/1/4 145/1/4 169/1/4
f 162/1/5 168/1/5 144/1/5 143/1/5
f 193/1/6 164/1/6 142/1/6 189/1/6
f 165/1/58 166/1/58 140/1/58 141/1/58
f 146/1/8 154/1/8 148/1/8 149/1/8
f 135/1/9 138/1/9 153/1/9 152/1/9
f 154/1/10 171/1/10 151/1/10 148/1/10
f 172/1/11 146/1/11 149/1/11 150/1/11
f 170/1/12 153/1/12 138/1/12
f 171/1/13 135/1/13 152/1/13 151/1/13
f 190/1/14 172/1/14 150/1/14 191/1/14
f 175/1/15 174/1/15 161/1/15 160/1/15
f 177/1/16 176/1/16 159/1/16 156/1/16
f 179/1/17 178/1/17 157/1/17 158/1/17
f 170/1/18 161/1/18 174/1/18
f 176/1/19 175/1/19 160/1/19 159/1/19
f 194/1/20 179/1/20 158/1/20 192/1/20
f 178/1/21 177/1/21 156/1/21 157/1/21
f 170/1/22 137/1/22 182/1/22
f 181/1/23 183/1/23 136/1/23 167/1/23
f 195/1/24 184/1/24 134/1/24 188/1/24
f 187/1/25 186/1/25 132/1/25 133/1/25
f 183/1/26 182/1/26 137/1/26 136/1/26
f 186/1/27 181/1/27 167/1/27 132/1/27
f 184/1/28 187/1/28 133/1/28 134/1/28
f 133/1/29 132/1/29 166/1/29 165/1/29
f 188/1/6 134/1/6 164/1/6 193/1/6
f 167/1/30 136/1/30 168/1/30 162/1/30
f 134/1/31 133/1/31 165/1/31 164/1/31
f 132/1/32 167/1/32 162/1/32 166/1/32
f 136/1/33 137/1/33 169/1/33 168/1/33
f 189/1/14 142/1/14 172/1/14 190/1/14
f 143/1/34 144/1/34 135/1/34 171/1/34
f 142/1/35 141/1/35 146/1/35 172/1/35
f 140/1/36 143/1/36 171/1/36 154/1/36
f 144/1/37 145/1/37 138/1/37 135/1/37
f 141/1/38 140/1/38 154/1/38 146/1/38
f 149/1/39 148/1/39 177/1/39 178/1/39
f 191/1/20 150/1/20 179/1/20 194/1/20
f 151/1/40 152/1/40 175/1/40 176/1/40
f 150/1/41 149/1/41 178/1/41 179/1/41
f 148/1/42 151/1/42 176/1/42 177/1/42
f 152/1/43 153/1/43 174/1/43 175/1/43
f 158/1/44 157/1/44 187/1/44 184/1/44
f 156/1/45 159/1/45 181/1/45 186/1/45
f 160/1/46 161/1/46 182/1/46 183/1/46
f 157/1/47 156/1/47 186/1/47 187/1/47
f 192/1/24 158/1/24 184/1/24 195/1/24
f 159/1/48 160/1/48 183/1/48 181/1/48
f 161/1/49 170/1/49 182/1/49
f 137/1/50 170/1/50 169/1/50
f 145/1/51 170/1/51 138/1/51
f 153/1/52 170/1/52 174/1/52
f 155/1/53 192/1/53 195/1/53 185/1/53
f 147/1/54 191/1/54 194/1/54 180/1/54
f 139/1/55 189/1/55 190/1/55 173/1/55
f 131/1/56 188/1/56 193/1/56 163/1/56
f 185/1/53 195/1/53 188/1/53 131/1/53
f 180/1/54 194/1/54 192/1/54 155/1/54
f 173/1/55 190/1/55 191/1/55 147/1/55
f 163/1/56 193/1/56 189/1/56 139/1/56
f 233/1/1 234/1/1 210/1/1 209/1/1
f 231/1/2 227/1/2 208/1/2 205/1/2
f 229/1/3 230/1/3 206/1/3 207/1/3
f 235/1/4 210/1/4 234/1/4
f 227/1/5 233/1/5 209/1/5 208/1/5
f 258/1/6 229/1/6 207/1/6 254/1/6
f 230/1/7 231/1/7 205/1/7 206/1/7
f 211/1/8 219/1/8 213/1/8 214/1/8
f 200/1/9 203/1/9 218/1/9 217/1/9
f 219/1/10 236/1/10 216/1/10 213/1/10
f 237/1/11 211/1/11 214/1/11 215/1/11
f 235/1/12 218/1/12 203/1/12
f 236/1/13 200/1/13 217/1/13 216/1/13
f 255/1/14 237/1/14 215/1/14 256/1/14
f 240/1/15 239/1/15 226/1/15 225/1/15
f 242/1/16 241/1/16 224/1/16 221/1/16
f 244/1/17 243/1/17 222/1/17 223/1/17
f 235/1/18 226/1/18 239/1/18
f 241/1/19 240/1/19 225/1/19 224/1/19
f 259/1/20 244/1/20 223/1/20 257/1/20
f 243/1/21 242/1/21 221/1/21 222/1/21
f 235/1/22 202/1/22 247/1/22
f 246/1/23 248/1/23 201/1/23 232/1/23
f 260/1/24 249/1/24 199/1/24 253/1/24
f 252/1/25 251/1/25 197/1/25 198/1/25
f 248/1/26 247/1/26 202/1/26 201/1/26
f 251/1/27 246/1/27 232/1/27 197/1/27
f 249/1/28 252/1/28 198/1/28 199/1/28
f 198/1/29 197/1/29 231/1/29 230/1/29
f 253/1/6 199/1/6 229/1/6 258/1/6
f 232/1/30 201/1/30 233/1/30 227/1/30
f 199/1/31 198/1/31 230/1/31 229/1/31
f 197/1/32 232/1/32 227/1/32 231/1/32
f 201/1/33 202/1/33 234/1/33 233/1/33
f 254/1/14 207/1/14 237/1/14 255/1/14
f 208/1/34 209/1/34 200/1/34 236/1/34
f 207/1/35 206/1/35 211/1/35 237/1/35
f 205/1/36 208/1/36 236/1/36 219/1/36
f 209/1/37 210/1/37 203/1/37 200/1/37
f 206/1/38 205/1/38 219/1/38 211/1/38
f 214/1/39 213/1/39 242/1/39 243/1/39
f 256/1/20 215/1/20 244/1/20 259/1/20
f 216/1/40 217/1/40 240/1/40 241/1/40
f 215/1/41 214/1/41 243/1/41 244/1/41
f 213/1/42 216/1/42 241/1/42 242/1/42
f 217/1/43 218/1/43 239/1/43 240/1/43
f 223/1/44 222/1/44 252/1/44 249/1/44
f 221/1/45 224/1/45 246/1/45 251/1/45
f 225/1/46 226/1/46 247/1/46 248/1/46
f 222/1/47 221/1/47 251/1/47 252/1/47
f 257/1/24 223/1/24 249/1/24 260/1/24
f 224/1/48 225/1/48 248/1/48 246/1/48
f 226/1/49 235/1/49 247/1/49
f 202/1/50 235/1/50 234/1/50
f 210/1/51 235/1/51 203/1/51
f 218/1/52 235/1/52 239/1/52
f 220/1/53 257/1/53 260/1/53 250/1/53
f 212/1/54 256/1/54 259/1/54 245/1/54
f 204/1/55 254/1/55 255/1/55 238/1/55
f 196/1/56 253/1/56 258/1/56 228/1/56
f 250/1/53 260/1/53 253/1/53 196/1/53
f 245/1/54 259/1/54 257/1/54 220/1/54
f 238/1/55 255/1/55 256/1/55 212/1/55
f 228/1/56 258/1/56 254/1/56 204/1/56
f 298/1/1 299/1/1 275/1/1 274/1/1
f 296/1/2 292/1/2 273/1/2 270/1/2
f 294/1/3 295/1/3 271/1/3 272/1/3
f 300/1/4 275/1/4 299/1/4
f 292/1/5 298/1/5 274/1/5 273/1/5
f 323/1/6 294/1/6 272/1/6 319/1/6
f 295/1/7 296/1/7 270/1/7 271/1/7
f 276/1/8 284/1/8 278/1/8 279/1/8
f 265/1/9 268/1/9 283/1/9 282/1/9
f 284/1/10 301/1/10 281/1/10 278/1/10
f 302/1/11 276/1/11 279/1/11 280/1/11
f 300/1/12 283/1/12 268/1/12
f 301/1/13 265/1/13 282/1/13 281/1/13
f 320/1/14 302/1/14 280/1/14 321/1/14
f 305/1/15 304/1/15 291/1/15 290/1/15
f 307/1/16 306/1/16 289/1/16 286/1/16
f 309/1/17 308/1/17 287/1/17 288/1/17
f 300/1/18 291/1/18 304/1/18
f 306/1/19 305/1/19 290/1/19 289/1/19
f 324/1/20 309/1/20 288/1/20 322/1/20
f 308/1/21 307/1/21 286/1/21 287/1/21
f 300/1/22 267/1/22 312/1/22
f 311/1/23 313/1/23 266/1/23 297/1/23
f 325/1/24 314/1/24 264/1/24 318/1/24
f 317/1/25 316/1/25 262/1/25 263/1/25
f 313/1/26 312/1/26 267/1/26 266/1/26
f 316/1/27 311/1/27 297/1/27 262/1/27
f 314/1/28 317/1/28 263/1/28 264/1/28
f 263/1/29 262/1/29 296/1/29 295/1/29
f 318/1/6 264/1/6 294/1/6 323/1/6
f 297/1/30 266/1/30 298/1/30 292/1/30
f 264/1/31 263/1/31 295/1/31 294/1/31
f 262/1/32 297/1/32 292/1/32 296/1/32
f 266/1/33 267/1/33 299/1/33 298/1/33
f 319/1/14 272/1/14 302/1/14 320/1/14
f 273/1/34 274/1/34 265/1/34 301/1/34
f 272/1/35 271/1/35 276/1/35 302/1/35
f 270/1/36 273/1/36 301/1/36 284/1/36
f 274/1/37 275/1/37 268/1/37 265/1/37
f 271/1/38 270/1/38 284/1/38 276/1/38
f 279/1/39 278/1/39 307/1/39 308/1/39
f 321/1/20 280/1/20 309/1/20 324/1/20
f 281/1/40 282/1/40 305/1/40 306/1/40
f 280/1/41 279/1/41 308/1/41 309/1/41
f 278/1/42 281/1/42 306/1/42 307/1/42
f 282/1/43 283/1/43 304/1/43 305/1/43
f 288/1/44 287/1/44 317/1/44 314/1/44
f 286/1/45 289/1/45 311/1/45 316/1/45
f 290/1/46 291/1/46 312/1/46 313/1/46
f 287/1/47 286/1/47 316/1/47 317/1/47
f 322/1/24 288/1/24 314/1/24 325/1/24
f 289/1/48 290/1/48 313/1/48 311/1/48
f 291/1/49 300/1/49 312/1/49
f 267/1/50 300/1/50 299/1/50
f 275/1/51 300/1/51 268/1/51
f 283/1/52 300/1/52 304/1/52
f 285/1/53 322/1/53 325/1/53 315/1/53
f 277/1/54 321/1/54 324/1/54 310/1/54
f 269/1/55 319/1/55 320/1/55 303/1/55
f 261/1/56 318/1/56 323/1/56 293/1/56
f 315/1/53 325/1/53 318/1/53 261/1/53
f 310/1/54 324/1/54 322/1/54 285/1/54
f 303/1/55 320/1/55 321/1/55 277/1/55
f 293/1/56 323/1/56 319/1/56 269/1/56
f 363/1/1 364/1/1 340/1/1 339/1/1
f 361/1/2 357/1/2 338/1/2 335/1/2
f 359/1/3 360/1/3 336/1/3 337/1/3
f 365/1/4 340/1/4 364/1/4
f 357/1/5 363/1/5 339/1/5 338/1/5
f 388/1/6 359/1/6 337/1/6 384/1/6
f 360/1/58 361/1/58 335/1/58 336/1/58
f 341/1/8 349/1/8 343/1/8 344/1/8
f 330/1/9 333/1/9 348/1/9 347/1/9
f 349/1/10 366/1/10 346/1/10 343/1/10
f 367/1/11 341/1/11 344/1/11 345/1/11
f 365/1/12 348/1/12 333/1/12
f 366/1/13 330/1/13 347/1/13 346/1/13
f 385/1/14 367/1/14 345/1/14 386/1/14
f 370/1/15 369/1/15 356/1/15 355/1/15
f 372/1/16 371/1/16 354/1/16 351/1/16
f 374/1/17 373/1/17 352/1/17 353/1/17
f 365/1/18 356/1/18 369/1/18
f 371/1/19 370/1/19 355/1/19 354/1/19
f 389/1/20 374/1/20 353/1/20 387/1/20
f 373/1/21 372/1/21 351/1/21 352/1/21
f 365/1/22 332/1/22 377/1/22
f 376/1/23 378/1/23 331/1/23 362/1/23
f 390/1/24 379/1/24 329/1/24 383/1/24
f 382/1/25 381/1/25 327/1/25 328/1/25
f 378/1/26 377/1/26 332/1/26 331/1/26
f 381/1/27 376/1/27 362/1/27 327/1/27
f 379/1/28 382/1/28 328/1/28 329/1/28
f 328/1/29 327/1/29 361/1/29 360/1/29
f 383/1/6 329/1/6 359/1/6 388/1/6
f 362/1/30 331/1/30 363/1/30 357/1/30
f 329/1/31 328/1/31 360/1/31 359/1/31
f 327/1/32 362/1/32 357/1/32 361/1/32
f 331/1/33 332/1/33 364/1/33 363/1/33
f 384/1/14 337/1/14 367/1/14 385/1/14
f 338/1/34 339/1/34 330/1/34 366/1/34
f 337/1/35 336/1/35 341/1/35 367/1/35
f 335/1/36 338/1/36 366/1/36 349/1/36
f 339/1/37 340/1/37 333/1/37 330/1/37
f 336/1/38 335/1/38 349/1/38 341/1/38
f 344/1/39 343/1/39 372/1/39 373/1/39
f 386/1/20 345/1/20 374/1/20 389/1/20
f 346/1/40 347/1/40 370/1/40 371/1/40
f 345/1/41 344/1/41 373/1/41 374/1/41
f 343/1/42 346/1/42 371/1/42 372/1/42
f 347/1/43 348/1/43 369/1/43 370/1/43
f 353/1/44 352/1/44 382/1/44 379/1/44
f 351/1/45 354/1/45 376/1/45 381/1/45
f 355/1/46 356/1/46 377/1/46 378/1/46
f 352/1/47 351/1/47 381/1/47 382/1/47
f 387/1/24 353/1/24 379/1/24 390/1/24
f 354/1/48 355/1/48 378/1/48 376/1/48
f 356/1/49 365/1/49 377/1/49
f 332/1/50 365/1/50 364/1/50
f 340/1/51 365/1/51 333/1/51
f 348/1/52 365/1/52 369/1/52
f 350/1/53 387/1/53 390/1/53 380/1/53
f 342/1/54 386/1/54 389/1/54 375/1/54
f 334/1/55 384/1/55 385/1/55 368/1/55
f 326/1/56 383/1/56 388/1/56 358/1/56
f 380/1/53 390/1/53 383/1/53 326/1/53
f 375/1/54 389/1/54 387/1/54 350/1/54
f 368/1/55 385/1/55 386/1/55 342/1/55
f 358/1/56 388/1/56 384/1/56 334/1/56
f 428/1/1 429/1/1 405/1/1 404/1/1
f 426/1/2 422/1/2 403/1/2 400/1/2
f 424/1/3 425/1/3 401/1/3 402/1/3
f 430/1/4 405/1/4 429/1/4
f 422/1/5 428/1/5 404/1/5 403/1/5
f 453/1/6 424/1/6 402/1/6 449/1/6
f 425/1/7 426/1/7 400/1/7 401/1/7
f 406/1/57 414/1/57 408/1/57 409/1/57
f 395/1/9 398/1/9 413/1/9 412/1/9
f 414/1/10 431/1/10 411/1/10 408/1/10
f 432/1/11 406/1/11 409/1/11 410/1/11
f 430/1/12 413/1/12 398/1/12
f 431/1/13 395/1/13 412/1/13 411/1/13
f 450/1/14 432/1/14 410/1/14 451/1/14
f 435/1/15 434/1/15 421/1/15 420/1/15
f 437/1/16 436/1/16 419/1/16 416/1/16
f 439/1/17 438/1/17 417/1/17 418/1/17
f 430/1/18 421/1/18 434/1/18
f 436/1/19 435/1/19 420/1/19 419/1/19
f 454/1/20 439/1/20 418/1/20 452/1/20
f 438/1/21 437/1/21 416/1/21 417/1/21
f 430/1/22 397/1/22 442/1/22
f 441/1/23 443/1/23 396/1/23 427/1/23
f 455/1/24 444/1/24 394/1/24 448/1/24
f 447/1/25 446/1/25 392/1/25 393/1/25
f 443/1/26 442/1/26 397/1/26 396/1/26
f 446/1/27 441/1/27 427/1/27 392/1/27
f 444/1/28 447/1/28 393/1/28 394/1/28
f 393/1/29 392/1/29 426/1/29 425/1/29
f 448/1/6 394/1/6 424/1/6 453/1/6
f 427/1/30 396/1/30 428/1/30 422/1/30
f 394/1/31 393/1/31 425/1/31 424/1/31
f 392/1/32 427/1/32 422/1/32 426/1/32
f 396/1/33 397/1/33 429/1/33 428/1/33
f 449/1/14 402/1/14 432/1/14 450/1/14
f 403/1/34 404/1/34 395/1/34 431/1/34
f 402/1/35 401/1/35 406/1/35 432/1/35
f 400/1/36 403/1/36 431/1/36 414/1/36
f 404/1/37 405/1/37 398/1/37 395/1/37
f 401/1/38 400/1/38 414/1/38 406/1/38
f 409/1/39 408/1/39 437/1/39 438/1/39
f 451/1/20 410/1/20 439/1/20 454/1/20
f 411/1/40 412/1/40 435/1/40 436/1/40
f 410/1/41 409/1/41 438/1/41 439/1/41
f 408/1/42 411/1/42 436/1/42 437/1/42
f 412/1/43 413/1/43 434/1/43 435/1/43
f 418/1/44 417/1/44 447/1/44 444/1/44
f 416/1/45 419/1/45 441/1/45 446/1/45
f 420/1/46 421/1/46 442/1/46 443/1/46
f 417/1/47 416/1/47 446/1/47 447/1/47
f 452/1/24 418/1/24 444/1/24 455/1/24
f 419/1/48 420/1/48 443/1/48 441/1/48
f 421/1/49 430/1/49 442/1/49
f 397/1/50 430/1/50 429/1/50
f 405/1/51 430/1/51 398/1/51
f 413/1/52 430/1/52 434/1/52
f 415/1/53 452/1/53 455/1/53 445/1/53
f 407/1/54 451/1/54 454/1/54 440/1/54
f 399/1/55 449/1/55 450/1/55 433/1/55
f 391/1/56 448/1/56 453/1/56 423/1/56
f 445/1/53 455/1/53 448/1/53 391/1/53
f 440/1/54 454/1/54 452/1/54 415/1/54
f 433/1/55 450/1/55 451/1/55 407/1/55
f 423/1/56 453/1/56 449/1/56 399/1/56
f 493/1/1 494/1/1 470/1/1 469/1/1
f 491/1/2 487/1/2 468/1/2 465/1/2
f 489/1/3 490/1/3 466/1/3 467/1/3
f 495/1/4 470/1/4 494/1/4
f 487/1/5 493/1/5 469/1/5 468/1/5
f 518/1/6 489/1/6 467/1/6 514/1/6
f 490/1/58 491/1/58 465/1/58 466/1/58
f 471/1/57 479/1/57 473/1/57 474/1/57
f 460/1/9 463/1/9 478/1/9 477/1/9
f 479/1/10 496/1/10 476/1/10 473/1/10
f 497/1/11 471/1/11 474/1/11 475/1/11
f 495/1/12 478/1/12 463/1/12
f 496/1/13 460/1/13 477/1/13 476/1/13
f 515/1/14 497/1/14 475/1/14 516/1/14
f 500/1/15 499/1/15 486/1/15 485/1/15
f 502/1/16 501/1/16 484/1/16 481/1/16
f 504/1/17 503/1/17 482/1/17 483/1/17
f 495/1/18 486/1/18 499/1/18
f 501/1/19 500/1/19 485/1/19 484/1/19
f 519/1/20 504/1/20 483/1/20 517/1/20
f 503/1/21 502/1/21 481/1/21 482/1/21
f 495/1/22 462/1/22 507/1/22
f 506/1/23 508/1/23 461/1/23 492/1/23
f 520/1/24 509/1/24 459/1/24 513/1/24
f 512/1/25 511/1/25 457/1/25 458/1/25
f 508/1/26 507/1/26 462/1/26 461/1/26
f 511/1/27 506/1/27 492/1/27 457/1/27
f 509/1/28 512/1/28 458/1/28 459/1/28
f 458/1/29 457/1/29 491/1/29 490/1/29
f 513/1/6 459/1/6 489/1/6 518/1/6
f 492/1/30 461/1/30 493/1/30 487/1/30
f 459/1/31 458/1/31 490/1/31 489/1/31
f 457/1/32 492/1/32 487/1/32 491/1/32
f 461/1/33 462/1/33 494/1/33 493/1/33
f 514/1/14 467/1/14 497/1/14 515/1/14
f 468/1/34 469/1/34 460/1/34 496/1/34
f 467/1/35 466/1/35 471/1/35 497/1/35
f 465/1/36 468/1/36 496/1/36 479/1/36
f 469/1/37 470/1/37 463/1/37 460/1/37
f 466/1/38 465/1/38 479/1/38 471/1/38
f 474/1/39 473/1/39 502/1/39 503/1/39
f 516/1/20 475/1/20 504/1/20 519/1/20
f 476/1/40 477/1/40 500/1/40 501/1/40
f 475/1/41 474/1/41 503/1/41 504/1/41
f 473/1/42 476/1/42 501/1/42 502/1/42
f 477/1/43 478/1/43 499/1/43 500/1/43
f 483/1/44 482/1/44 512/1/44 509/1/44
f 481/1/45 484/1/45 506/1/45 511/1/45
f 485/1/46 486/1/46 507/1/46 508/1/46
f 482/1/47 481/1/47 511/1/47 512/1/47
f 517/1/24 483/1/24 509/1/24 520/1/24
f 484/1/48 485/1/48 508/1/48 506/1/48
f 486/1/49 495/1/49 507/1/49
f 462/1/50 495/1/50 494/1/50
f 470/1/51 495/1/51 463/1/51
f 478/1/52 495/1/52 499/1/52
f 480/1/53 517/1/53 520/1/53 510/1/53
f 472/1/54 516/1/54 519/1/54 505/1/54
f 464/1/55 514/1/55 515/1/55 498/1/55
f 456/1/56 513/1/56 518/1/56 488/1/56
f 510/1/53 520/1/53 513/1/53 456/1/53
f 505/1/54 519/1/54 517/1/54 480/1/54
f 498/1/55 515/1/55 516/1/55 472/1/55
f 488/1/56 518/1/56 514/1/56 464/1/56
f 558/1/1 559/1/1 535/1/1 534/1/1
f 556/1/2 552/1/2 533/1/2 530/1/2
f 554/1/3 555/1/3 531/1/3 532/1/3
f 560/1/4 535/1/4 559/1/4
f 552/1/5 558/1/5 534/1/5 533/1/5
f 583/1/6 554/1/6 532/1/6 579/1/6
f 555/1/58 556/1/58 530/1/58 531/1/58
f 536/1/57 544/1/57 538/1/57 539/1/57
f 525/1/9 528/1/9 543/1/9 542/1/9
f 544/1/10 561/1/10 541/1/10 538/1/10
f 562/1/11 536/1/11 539/1/11 540/1/11
f 560/1/12 543/1/12 528/1/12
f 561/1/13 525/1/13 542/1/13 541/1/13
f 580/1/14 562/1/14 540/1/14 581/1/14
f 565/1/15 564/1/15 551/1/15 550/1/15
f 567/1/16 566/1/16 549/1/16 546/1/16
f 569/1/17 568/1/17 547/1/17 548/1/17
f 560/1/18 551/1/18 564/1/18
f 566/1/19 565/1/19 550/1/19 549/1/19
f 584/1/20 569/1/20 548/1/20 582/1/20
f 568/1/21 567/1/21 546/1/21 547/1/21
f 560/1/22 527/1/22 572/1/22
f 571/1/23 573/1/23 526/1/23 557/1/23
f 585/1/24 574/1/24 524/1/24 578/1/24
f 577/1/59 576/1/59 522/1/59 523/1/59
f 573/1/26 572/1/26 527/1/26 526/1/26
f 576/1/27 571/1/27 557/1/27 522/1/27
f 574/1/28 577/1/28 523/1/28 524/1/28
f 523/1/29 522/1/29 556/1/29 555/1/29
f 578/1/6 524/1/6 554/1/6 583/1/6
f 557/1/30 526/1/30 558/1/30 552/1/30
f 524/1/31 523/1/31 555/1/31 554/1/31
f 522/1/32 557/1/32 552/1/32 556/1/32
f 526/1/33 527/1/33 559/1/33 558/1/33
f 579/1/14 532/1/14 562/1/14 580/1/14
f 533/1/34 534/1/34 525/1/34 561/1/34
f 532/1/35 531/1/35 536/1/35 562/1/35
f 530/1/36 533/1/36 561/1/36 544/1/36
f 534/1/37 535/1/37 528/1/37 525/1/37
f 531/1/38 530/1/38 544/1/38 536/1/38
f 539/1/39 538/1/39 567/1/39 568/1/39
f 581/1/20 540/1/20 569/1/20 584/1/20
f 541/1/40 542/1/40 565/1/40 566/1/40
f 540/1/41 539/1/41 568/1/41 569/1/41
f 538/1/42 541/1/42 566/1/42 567/1/42
f 542/1/43 543/1/43 564/1/43 565/1/43
f 548/1/44 547/1/44 577/1/44 574/1/44
f 546/1/45 549/1/45 571/1/45 576/1/45
f 550/1/46 551/1/46 572/1/46 573/1/46
f 547/1/47 546/1/47 576/1/47 577/1/47
f 582/1/24 548/1/24 574/1/24 585/1/24
f 549/1/48 550/1/48 573/1/48 571/1/48
f 551/1/49 560/1/49 572/1/49
f 527/1/50 560/1/50 559/1/50
f 535/1/51 560/1/51 528/1/51
f 543/1/52 560/1/52 564/1/52
f 545/1/53 582/1/53 585/1/53 575/1/53
f 537/1/54 581/1/54 584/1/54 570/1/54
f 529/1/55 579/1/55 580/1/55 563/1/55
f 521/1/56 578/1/56 583/1/56 553/1/56
f 575/1/53 585/1/53 578/1/53 521/1/53
f 570/1/54 584/1/54 582/1/54 545/1/54
f 563/1/55 580/1/55 581/1/55 537/1/55
f 553/1/56 583/1/56 579/1/56 529/1/56
